<svg width="120" height="120" viewBox="0 0 120 120" fill="none" xmlns="http://www.w3.org/2000/svg">
<path d="M97.8421 31.5H57.9474L47.9474 22H23C17.5263 22 13 26.3 13 31.5V88.4C13 93.6 17.5263 97.9 23 97.9H100.368C104.579 97.9 107.842 94.8 107.842 90.8V40.9C107.842 35.7 103.316 31.5 97.8421 31.5Z" fill="#FFA000"/>
<path d="M108.368 46H41.2105C36.4737 46 32.2632 49.3 31.4211 53.8L23 98.1H102.053C106.789 98.1 111 94.8 111.842 90.3L118.053 57.1C119.316 51.4 114.579 46 108.368 46Z" fill="#FFCA28"/>
</svg>
