<svg width="24" height="24" viewBox="0 0 24 24" fill="none" xmlns="http://www.w3.org/2000/svg">
<path d="M9.12987 8.50258L9.53359 8.79754C9.63594 8.65746 9.65835 8.47434 9.59282 8.31371C9.52729 8.15308 9.38318 8.0379 9.21206 8.00938L9.12987 8.50258ZM4.06689 10.1757L3.70972 9.82578L4.06689 10.1757ZM2.82846 12.0347L2.37003 11.8351C2.29606 12.005 2.32211 12.2018 2.43771 12.3467C2.55332 12.4915 2.73953 12.5605 2.92158 12.5259L2.82846 12.0347ZM7.16295 11.9603L7.09895 12.4562C7.32068 12.4848 7.53445 12.3628 7.62252 12.1573L7.16295 11.9603ZM12.2077 21.6084L11.72 21.4983C11.6782 21.6834 11.7448 21.8762 11.892 21.9961C12.0391 22.1159 12.2414 22.1421 12.4143 22.0637L12.2077 21.6084ZM14.0289 20.3443L13.6717 19.9943L13.6659 20.0005L14.0289 20.3443ZM15.668 15.1762L16.1619 15.098C16.1345 14.925 16.0185 14.7789 15.8561 14.7129C15.6937 14.647 15.5087 14.6709 15.3684 14.776L15.668 15.1762ZM12.2806 17.1654L12.0828 16.7061C11.8784 16.7941 11.7568 17.0066 11.7844 17.2274L12.2806 17.1654ZM7.58218 15.7527L7.22501 15.4028L7.58218 15.7527ZM11.2246 12.0347L11.5818 12.3846L11.2246 12.0347ZM12.2081 13.0385L12.5652 13.3884L12.2081 13.0385ZM8.56563 16.7565L8.20847 16.4066L8.56563 16.7565ZM11.2198 14.0121C11.0181 13.8234 10.7017 13.8339 10.5131 14.0356C10.3244 14.2372 10.3349 14.5536 10.5365 14.7423L11.2198 14.0121ZM13.4335 16.8741C13.6729 17.0118 13.9785 16.9294 14.1162 16.69C14.2539 16.4507 14.1715 16.145 13.9322 16.0073L13.4335 16.8741ZM8.33088 10.2714C8.19887 10.0288 7.89523 9.93921 7.65269 10.0712C7.41014 10.2032 7.32053 10.5069 7.45254 10.7494L8.33088 10.2714ZM9.54125 13.7073C9.72575 13.9128 10.0419 13.9298 10.2473 13.7453C10.4528 13.5608 10.4698 13.2446 10.2853 13.0392L9.54125 13.7073ZM10.2338 15.013C10.0307 14.826 9.71435 14.8389 9.52725 15.042C9.34016 15.2451 9.35314 15.5615 9.55624 15.7485L10.2338 15.013ZM12.2444 17.184L11.9763 17.6061L12.2016 17.7492L12.4458 17.6417L12.2444 17.184ZM18.2291 13.5928C18.4223 13.3956 18.4191 13.079 18.2218 12.8858C18.0246 12.6925 17.708 12.6958 17.5148 12.893L18.2291 13.5928ZM11.0059 6.23448L10.6497 5.88365L10.6488 5.88457L11.0059 6.23448ZM8.54104 14.7127C8.72647 14.9173 9.04267 14.9329 9.2473 14.7474C9.45192 14.562 9.46748 14.2458 9.28205 14.0412L8.54104 14.7127ZM19.0282 11.1457C18.8607 11.3652 18.9028 11.679 19.1223 11.8466C19.3418 12.0141 19.6556 11.972 19.8231 11.7524L19.0282 11.1457ZM22.9895 1.01067L23.4891 0.990555L23.4706 0.530409L23.0105 0.511108L22.9895 1.01067ZM17.6921 1.343C17.4314 1.43391 17.2937 1.71898 17.3846 1.97973C17.4755 2.24048 17.7606 2.37817 18.0213 2.28727L17.6921 1.343ZM16.6556 2.8368C16.9068 2.722 17.0173 2.42534 16.9025 2.17419C16.7877 1.92304 16.4911 1.81251 16.2399 1.92731L16.6556 2.8368ZM19.085 1.31364C18.9443 1.07605 18.6376 0.99754 18.4 1.13828C18.1624 1.27901 18.0839 1.58571 18.2246 1.82329L19.085 1.31364ZM20.3303 3.74351L20.6875 3.39357L20.6825 3.38861L20.3303 3.74351ZM22.2015 5.86251C22.4375 6.0059 22.7451 5.93083 22.8885 5.69483C23.0319 5.45883 22.9568 5.15128 22.7208 5.00789L22.2015 5.86251ZM3.04294 17.4468C3.06237 17.7222 3.30141 17.9298 3.57687 17.9104C3.85233 17.891 4.05989 17.6519 4.04047 17.3765L3.04294 17.4468ZM1.64717 15.8438L1.41665 15.4001H1.41665L1.64717 15.8438ZM1.0853 18.2194C1.28275 18.4125 1.59931 18.4089 1.79236 18.2115C1.98542 18.014 1.98185 17.6975 1.78441 17.5044L1.0853 18.2194ZM2.72093 18.6505C2.88931 18.8694 3.20324 18.9103 3.4221 18.7419C3.64097 18.5735 3.68188 18.2596 3.5135 18.0408L2.72093 18.6505ZM1.59832 19.4965L1.1137 19.6196H1.1137L1.59832 19.4965ZM4.03356 20.6652C4.27374 20.529 4.35798 20.2238 4.22172 19.9836C4.08546 19.7434 3.78029 19.6592 3.54011 19.7954L4.03356 20.6652ZM2.21071 21.2586C2.0175 21.0613 1.70094 21.058 1.50364 21.2512C1.30634 21.4444 1.30302 21.7609 1.49622 21.9582L2.21071 21.2586ZM3.58636 22.2066C3.81539 22.0523 3.876 21.7416 3.72173 21.5125C3.56746 21.2835 3.25674 21.2229 3.0277 21.3772L3.58636 22.2066ZM5.66157 21.4598C5.78791 21.7054 6.08938 21.802 6.33493 21.6757C6.58048 21.5494 6.67712 21.2479 6.55078 21.0023L5.66157 21.4598ZM4.7506 21.1143L5.10785 21.4642L4.7506 21.1143ZM5.57758 23.1702C5.84716 23.1104 6.01718 22.8433 5.95734 22.5738C5.89749 22.3042 5.63044 22.1342 5.36086 22.194L5.57758 23.1702ZM7.44724 20.1944C7.17866 20.1302 6.9089 20.2959 6.84471 20.5644C6.78052 20.833 6.94621 21.1028 7.21478 21.167L7.44724 20.1944ZM8.68659 22.3318L8.20041 22.2151L8.68659 22.3318ZM7.06485 22.3351C6.81792 22.2115 6.51754 22.3114 6.39393 22.5584C6.27032 22.8053 6.37029 23.1057 6.61722 23.2293L7.06485 22.3351ZM6.3572 17.7317C6.49708 17.4936 6.41747 17.1872 6.17939 17.0473C5.9413 16.9074 5.63489 16.987 5.495 17.2251L6.3572 17.7317ZM3.91251 18.2059C3.6787 18.3528 3.60827 18.6615 3.75521 18.8953C3.90214 19.1291 4.21079 19.1995 4.44459 19.0526L3.91251 18.2059ZM7.42221 18.9538C7.5737 18.7229 7.50935 18.4129 7.27848 18.2614C7.04761 18.1099 6.73763 18.1743 6.58613 18.4052L7.42221 18.9538ZM5.52454 20.023C5.37304 20.2539 5.43739 20.5638 5.66826 20.7153C5.89914 20.8668 6.20911 20.8025 6.36061 20.5716L5.52454 20.023ZM12.3913 19.9755L11.8916 19.9573L12.3913 19.9755ZM14.4692 19.8429L14.8625 20.1517L14.4692 19.8429ZM14.8313 19.3284L15.2548 19.5943L14.8313 19.3284ZM12.3904 18.6795L11.8907 18.6963L12.3904 18.6795ZM15.4719 17.9364L15.9492 18.0852L15.4719 17.9364ZM12.3409 17.8531L11.8421 17.8879L12.3409 17.8531ZM12.3121 17.4784L11.8139 17.5211L12.3121 17.4784ZM15.5949 17.4784L16.0825 17.5888L15.5949 17.4784ZM15.6792 17.0269L16.1738 17.0999L15.6792 17.0269ZM12.8044 16.9274L12.5887 16.4763L12.8044 16.9274ZM13.3573 16.644L13.1226 16.2025L13.3573 16.644ZM14.924 15.7062L14.6439 15.292L14.924 15.7062ZM15.7287 15.7062L16.2274 15.6709L15.7287 15.7062ZM3.14742 11.397L2.71319 11.1491L3.14742 11.397ZM3.45606 10.9104L3.04698 10.6229L3.45606 10.9104ZM3.76341 10.5104L3.38031 10.1891L3.76341 10.5104ZM4.3795 9.87854L4.04825 9.50401L4.3795 9.87854ZM5.16294 9.29372L4.8984 8.86944L5.16294 9.29372ZM5.59882 9.0475L5.37204 8.60189L5.59882 9.0475ZM7.80467 10.6203L8.24624 10.8548L7.80467 10.6203ZM6.77681 8.60313L6.6529 8.11873L6.77681 8.60313ZM7.25386 8.50258L7.17171 8.00937L7.25386 8.50258ZM8.46268 9.46515L8.88679 9.72997L8.46268 9.46515ZM8.66226 9.1524L9.08109 9.42549L8.66226 9.1524ZM7.93934 16.4066C7.8566 16.3222 7.8566 16.187 7.93934 16.1026L7.22501 15.4028C6.76138 15.876 6.76138 16.6332 7.22501 17.1064L7.93934 16.4066ZM7.93934 16.1026L11.5818 12.3846L10.8674 11.6847L7.22501 15.4028L7.93934 16.1026ZM11.5818 12.3846C11.6589 12.3058 11.7738 12.3058 11.8509 12.3846L12.5652 11.6847C12.096 11.2058 11.3367 11.2058 10.8674 11.6847L11.5818 12.3846ZM11.8509 12.3846C11.9336 12.469 11.9336 12.6042 11.8509 12.6886L12.5652 13.3884C13.0289 12.9152 13.0289 12.158 12.5652 11.6847L11.8509 12.3846ZM11.8509 12.6886L8.20847 16.4066L8.9228 17.1064L12.5652 13.3884L11.8509 12.6886ZM8.20847 16.4066C8.13134 16.4853 8.01646 16.4853 7.93934 16.4066L7.22501 17.1064C7.69425 17.5854 8.45356 17.5854 8.9228 17.1064L8.20847 16.4066ZM17.5569 8.09991C17.5569 8.9931 16.8506 9.69916 16.0012 9.69916V10.6992C17.4225 10.6992 18.5569 9.52549 18.5569 8.09991H17.5569ZM16.0012 9.69916C15.1519 9.69916 14.4456 8.9931 14.4456 8.09991H13.4456C13.4456 9.52549 14.58 10.6992 16.0012 10.6992V9.69916ZM14.4456 8.09991C14.4456 7.20672 15.1519 6.50066 16.0012 6.50066V5.50066C14.58 5.50066 13.4456 6.67433 13.4456 8.09991H14.4456ZM16.0012 6.50066C16.8506 6.50066 17.5569 7.20672 17.5569 8.09991H18.5569C18.5569 6.67433 17.4225 5.50066 16.0012 5.50066V6.50066ZM10.5365 14.7423C11.4413 15.5889 12.4017 16.2805 13.4335 16.8741L13.9322 16.0073C12.9606 15.4483 12.0634 14.8015 11.2198 14.0121L10.5365 14.7423ZM7.45254 10.7494C8.01694 11.7864 8.71311 12.7852 9.54125 13.7073L10.2853 13.0392C9.51073 12.1767 8.85921 11.2421 8.33088 10.2714L7.45254 10.7494ZM9.55624 15.7485C10.3257 16.4573 11.1326 17.0702 11.9763 17.6061L12.5124 16.762C11.717 16.2568 10.9577 15.6799 10.2338 15.013L9.55624 15.7485ZM6.71804 12.2391C7.24034 13.0959 7.84142 13.9406 8.54104 14.7127L9.28205 14.0412C8.63397 13.326 8.06948 12.5348 7.5719 11.7186L6.71804 12.2391ZM19.8231 11.7524C22.363 8.42466 23.632 4.53926 23.4891 0.990555L22.49 1.03078C22.6224 4.32028 21.4436 7.9811 19.0282 11.1457L19.8231 11.7524ZM23.0105 0.511108C21.2793 0.438484 19.4716 0.722635 17.6921 1.343L18.0213 2.28727C19.6929 1.70451 21.3748 1.44337 22.9686 1.51023L23.0105 0.511108ZM16.2399 1.92731C14.2611 2.8318 12.3489 4.15809 10.6497 5.88365L11.3622 6.58531C12.9785 4.94401 14.7907 3.68922 16.6556 2.8368L16.2399 1.92731ZM18.2246 1.82329C18.7169 2.65428 19.2886 3.41407 19.9781 4.09841L20.6825 3.38861C20.0609 2.77164 19.5398 2.0814 19.085 1.31364L18.2246 1.82329ZM19.9732 4.09341C20.6585 4.79296 21.4017 5.37652 22.2015 5.86251L22.7208 5.00789C21.9908 4.56438 21.3135 4.03253 20.6875 3.3936L19.9732 4.09341ZM4.04047 17.3765C4.01112 16.9602 3.8396 16.2949 3.45598 15.8058C3.25795 15.5533 2.98033 15.3194 2.6096 15.2229C2.2313 15.1243 1.82656 15.1872 1.41665 15.4001L1.87769 16.2875C2.11641 16.1635 2.26669 16.1669 2.35758 16.1906C2.45604 16.2162 2.56179 16.2861 2.66911 16.4229C2.89619 16.7125 3.0233 17.1681 3.04294 17.4468L4.04047 17.3765ZM1.41665 15.4001C0.781132 15.7303 0.501003 16.2834 0.500003 16.8457C0.499063 17.3738 0.741679 17.8835 1.0853 18.2194L1.78441 17.5044C1.61628 17.34 1.49958 17.0825 1.5 16.8475C1.50036 16.6469 1.58226 16.441 1.87769 16.2875L1.41665 15.4001ZM3.5135 18.0408C3.30828 17.774 2.99178 17.6692 2.72788 17.6444C2.4523 17.6184 2.15123 17.6688 1.88086 17.7983C1.6069 17.9296 1.34747 18.1511 1.19197 18.4768C1.03482 18.806 1.00593 19.1953 1.1137 19.6196L2.08293 19.3734C2.0225 19.1355 2.05446 18.9913 2.09442 18.9076C2.13602 18.8205 2.20998 18.7495 2.31288 18.7002C2.41936 18.6492 2.53864 18.631 2.6341 18.64C2.74124 18.6501 2.74648 18.6838 2.72093 18.6505L3.5135 18.0408ZM1.1137 19.6196C1.27021 20.2357 1.87664 20.589 2.37245 20.7442C2.88215 20.9038 3.54458 20.9426 4.03356 20.6652L3.54011 19.7954C3.39213 19.8794 3.05112 19.9088 2.67121 19.7899C2.27741 19.6666 2.10806 19.4723 2.08293 19.3734L1.1137 19.6196ZM1.49622 21.9582C1.66312 22.1287 1.94924 22.3312 2.30763 22.4261C2.6839 22.5258 3.14274 22.5054 3.58636 22.2066L3.0277 21.3772C2.85722 21.492 2.70362 21.4965 2.56378 21.4595C2.40608 21.4177 2.27245 21.3216 2.21071 21.2586L1.49622 21.9582ZM6.55078 21.0023C6.43217 20.7718 6.17785 20.4438 5.77301 20.3136C5.31004 20.1646 4.8245 20.3242 4.39336 20.7645L5.10785 21.4642C5.2371 21.3322 5.32964 21.2855 5.37937 21.2694C5.423 21.2553 5.4479 21.2594 5.46676 21.2655C5.49215 21.2737 5.52771 21.2937 5.5682 21.3335C5.60879 21.3734 5.64149 21.4208 5.66157 21.4598L6.55078 21.0023ZM4.39336 20.7645C4.11115 21.0527 3.95501 21.3824 3.95179 21.7323C3.94865 22.0738 4.09183 22.36 4.26252 22.5701C4.43243 22.7792 4.64926 22.9389 4.85625 23.0419C4.9608 23.094 5.07263 23.1364 5.18523 23.1619C5.29121 23.1859 5.43161 23.2027 5.57758 23.1702L5.36086 22.194C5.41292 22.1825 5.43389 22.1929 5.40609 22.1866C5.38491 22.1818 5.34859 22.17 5.30181 22.1467C5.20615 22.0991 5.10757 22.0243 5.03861 21.9394C4.97045 21.8555 4.95132 21.7884 4.95175 21.7415C4.95211 21.7032 4.96541 21.6096 5.10785 21.4642L4.39336 20.7645ZM7.21478 21.167C7.41348 21.2145 7.73116 21.3449 7.95915 21.5477C8.17015 21.7354 8.26629 21.9408 8.20041 22.2151L9.17276 22.4486C9.34898 21.7149 9.0232 21.1559 8.62383 20.8006C8.24144 20.4604 7.76029 20.2692 7.44724 20.1944L7.21478 21.167ZM8.20041 22.2151C8.17232 22.332 8.12573 22.3848 8.0855 22.4152C8.03801 22.451 7.96089 22.4833 7.84229 22.4953C7.59278 22.5204 7.27965 22.4426 7.06485 22.3351L6.61722 23.2293C6.95772 23.3997 7.46122 23.5387 7.94258 23.4902C8.18941 23.4653 8.45629 23.3882 8.68798 23.2133C8.92693 23.0329 9.0947 22.7736 9.17276 22.4486L8.20041 22.2151ZM5.495 17.2251C5.52698 17.1707 5.56174 17.137 5.56476 17.1339C5.57465 17.124 5.58151 17.1182 5.58184 17.1179C5.5829 17.117 5.57796 17.1212 5.56349 17.132C5.53568 17.1528 5.49229 17.1836 5.43348 17.2239C5.31709 17.3036 5.15696 17.4094 4.97737 17.5262C4.61907 17.7592 4.19433 18.0288 3.91251 18.2059L4.44459 19.0526C4.72896 18.8739 5.15839 18.6014 5.52252 18.3646C5.70414 18.2465 5.87229 18.1354 5.99877 18.0488C6.0614 18.0058 6.1181 17.966 6.16247 17.9328C6.18408 17.9166 6.20826 17.898 6.23063 17.8789C6.24162 17.8695 6.25718 17.8558 6.27372 17.8392C6.28341 17.8294 6.32277 17.7903 6.3572 17.7317L5.495 17.2251ZM6.58613 18.4052L5.52454 20.023L6.36061 20.5716L7.42221 18.9538L6.58613 18.4052ZM11.8258 20.8572C11.7986 21.0898 11.7635 21.3055 11.72 21.4983L12.6954 21.7185C12.7485 21.4837 12.7887 21.2321 12.819 20.9736L11.8258 20.8572ZM12.4143 22.0637C12.7399 21.916 13.0638 21.7415 13.3756 21.5355L12.8244 20.7011C12.5613 20.8749 12.2843 21.0246 12.0011 21.1531L12.4143 22.0637ZM12.1962 21.3992L12.9738 21.6021L13.2262 20.6345L12.4486 20.4316L12.1962 21.3992ZM11.8646 20.4494C11.8541 20.589 11.8413 20.7254 11.8258 20.8572L12.819 20.9736C12.8363 20.8264 12.8504 20.676 12.8618 20.5242L11.8646 20.4494ZM13.3756 21.5355C13.5945 21.3908 13.8077 21.2305 14.0114 21.053L13.3543 20.2992C13.1864 20.4455 13.009 20.5792 12.8244 20.7011L13.3756 21.5355ZM14.0114 21.053C14.1426 20.9386 14.2698 20.8171 14.392 20.6881L13.6659 20.0005C13.5664 20.1055 13.4623 20.205 13.3543 20.2992L14.0114 21.053ZM12.2922 20.9817L13.6118 21.171L13.7538 20.1811L12.4342 19.9918L12.2922 20.9817ZM11.8916 19.9573C11.8855 20.1237 11.8767 20.2884 11.8646 20.4494L12.8618 20.5242C12.8749 20.349 12.8844 20.1714 12.8909 19.9938L11.8916 19.9573ZM14.3861 20.6942C14.4351 20.6441 14.4832 20.5935 14.5303 20.5422L13.7943 19.8653C13.7543 19.9088 13.7135 19.9518 13.6718 19.9944L14.3861 20.6942ZM12.3274 20.4714L14.0984 20.6997L14.2262 19.7079L12.4552 19.4796L12.3274 20.4714ZM14.5303 20.5422C14.647 20.4155 14.7577 20.2852 14.8625 20.1517L14.076 19.5341C13.9872 19.6471 13.8933 19.7576 13.7943 19.8653L14.5303 20.5422ZM11.9013 19.5335C11.8999 19.6748 11.8967 19.8165 11.8916 19.9573L12.8909 19.9938C12.8964 19.8434 12.8997 19.6928 12.9012 19.5434L11.9013 19.5335ZM14.5421 19.3482L12.4741 19.0438L12.3284 20.0331L14.3964 20.3375L14.5421 19.3482ZM11.8997 19.0551C11.9022 19.2125 11.9029 19.3727 11.9013 19.5335L12.9012 19.5434C12.9029 19.3732 12.9022 19.2045 12.8995 19.0391L11.8997 19.0551ZM14.8625 20.1517C15.0041 19.9713 15.1348 19.7853 15.2548 19.5943L14.4078 19.0626C14.3065 19.224 14.1959 19.3814 14.076 19.5341L14.8625 20.1517ZM12.3421 19.5438L14.7738 19.8251L14.8888 18.8317L12.4571 18.5504L12.3421 19.5438ZM15.2548 19.5943C15.3628 19.4221 15.4621 19.246 15.5524 19.0665L14.6593 18.6167C14.583 18.7683 14.4992 18.9171 14.4078 19.0626L15.2548 19.5943ZM11.8907 18.6963C11.8947 18.8136 11.8977 18.9335 11.8997 19.0551L12.8995 19.0391C12.8975 18.9113 12.8943 18.7855 12.8901 18.6626L11.8907 18.6963ZM15.1357 18.3425L12.4202 18.1804L12.3606 19.1786L15.0761 19.3408L15.1357 18.3425ZM11.8641 18.2262C11.8759 18.4188 11.8842 18.504 11.8907 18.6963L12.8901 18.6626C12.8831 18.4523 12.8726 18.3353 12.8623 18.1653L11.8641 18.2262ZM15.5524 19.0665C15.6413 18.8901 15.7216 18.7103 15.7934 18.528L14.8628 18.1619C14.8022 18.3159 14.7344 18.4677 14.6593 18.6167L15.5524 19.0665ZM12.3381 18.6951L15.303 18.8443L15.3532 17.8456L12.3883 17.6964L12.3381 18.6951ZM15.7934 18.528C15.8508 18.382 15.9028 18.2343 15.9492 18.0852L14.9945 17.7877C14.9553 17.9137 14.9114 18.0385 14.8628 18.1619L15.7934 18.528ZM11.8421 17.8879C11.8499 18 11.8573 18.1147 11.8641 18.2262L12.8623 18.1653C12.8553 18.0514 12.8477 17.9337 12.8397 17.8183L11.8421 17.8879ZM15.4852 17.4366L12.3542 17.3533L12.3276 18.3529L15.4586 18.4363L15.4852 17.4366ZM11.7844 17.2274C11.7937 17.3018 11.8037 17.4023 11.8139 17.5211L12.8103 17.4357C12.7996 17.3116 12.7883 17.1964 12.7767 17.1033L11.7844 17.2274ZM11.8139 17.5211C11.8235 17.6333 11.833 17.7585 11.8421 17.8879L12.8397 17.8183C12.8304 17.6853 12.8205 17.5547 12.8103 17.4357L11.8139 17.5211ZM15.9492 18.0852C16.0003 17.9213 16.0448 17.7557 16.0825 17.5888L15.1073 17.3679C15.0753 17.5091 15.0377 17.6491 14.9945 17.7877L15.9492 18.0852ZM12.3121 17.9784H15.5949V16.9784H12.3121V17.9784ZM16.0825 17.5888C16.1192 17.4269 16.1496 17.2638 16.1738 17.0999L15.1845 16.954C15.164 17.0929 15.1383 17.231 15.1073 17.3679L16.0825 17.5888ZM12.5887 16.4763C12.4208 16.5566 12.2521 16.6332 12.0828 16.7061L12.4783 17.6246C12.6599 17.5464 12.8404 17.4644 13.02 17.3786L12.5887 16.4763ZM15.6965 16.5272L12.8217 16.4277L12.7871 17.4271L15.6619 17.5266L15.6965 16.5272ZM12.4458 17.6417C12.8304 17.4724 13.2128 17.2869 13.5919 17.0855L13.1226 16.2025C12.7651 16.3924 12.4048 16.5671 12.043 16.7264L12.4458 17.6417ZM13.5919 17.0855C15.2286 16.2158 16.8039 15.0476 18.2291 13.5928L17.5148 12.893C16.1599 14.2761 14.6669 15.3819 13.1226 16.2025L13.5919 17.0855ZM16.1738 17.0999C16.1941 16.9622 16.21 16.8239 16.2215 16.6853L15.2249 16.6027C15.2152 16.7202 15.2017 16.8374 15.1845 16.954L16.1738 17.0999ZM13.3573 17.144H15.7232V16.144H13.3573V17.144ZM16.2215 16.6853C16.2329 16.5481 16.2399 16.4106 16.2427 16.2729L15.2429 16.2528C15.2406 16.3697 15.2346 16.4864 15.2249 16.6027L16.2215 16.6853ZM13.9039 15.7655C13.4702 16.0273 13.0318 16.2645 12.5887 16.4763L13.02 17.3786C13.4937 17.1521 13.9606 16.8993 14.4207 16.6216L13.9039 15.7655ZM15.7647 15.7633L14.1842 15.694L14.1404 16.693L15.7209 16.7624L15.7647 15.7633ZM15.3684 14.776C15.1284 14.9556 14.8869 15.1277 14.6439 15.292L15.2041 16.1204C15.4608 15.9468 15.7153 15.7654 15.9677 15.5765L15.3684 14.776ZM14.6439 15.292C14.3988 15.4577 14.1521 15.6156 13.9039 15.7655L14.4207 16.6216C14.6841 16.4626 14.9452 16.2954 15.2041 16.1204L14.6439 15.292ZM16.2427 16.2729C16.2467 16.0724 16.2416 15.8715 16.2274 15.6709L15.2299 15.7415C15.242 15.912 15.2463 16.0826 15.2429 16.2528L16.2427 16.2729ZM16.2274 15.6709C16.2139 15.4795 16.192 15.2884 16.1619 15.098L15.1742 15.2544C15.1998 15.4164 15.2184 15.5789 15.2299 15.7415L16.2274 15.6709ZM14.924 16.2062H15.7287V15.2062H14.924V16.2062ZM2.71319 11.1491C2.58516 11.3734 2.47126 11.6026 2.37003 11.8351L3.28689 12.2343C3.37452 12.033 3.47244 11.8362 3.58166 11.6449L2.71319 11.1491ZM2.92158 12.5259C3.24671 12.4643 3.58678 12.4164 3.94016 12.3831L3.84639 11.3875C3.46353 11.4236 3.09255 11.4757 2.73533 11.5434L2.92158 12.5259ZM2.87356 11.8154L3.61941 12.3036L4.16714 11.467L3.42129 10.9787L2.87356 11.8154ZM3.04698 10.6229C2.9263 10.7947 2.81528 10.9703 2.71319 11.1491L3.58166 11.6449C3.66874 11.4923 3.76305 11.3432 3.86513 11.198L3.04698 10.6229ZM3.94016 12.3831C4.14332 12.364 4.35081 12.3497 4.56232 12.3404L4.51845 11.3414C4.29067 11.3514 4.06653 11.3668 3.84639 11.3875L3.94016 12.3831ZM3.13046 11.2899L4.21479 12.2203L4.86599 11.4614L3.78165 10.531L3.13046 11.2899ZM3.70972 9.82578C3.59399 9.94391 3.48428 10.0651 3.38031 10.1891L4.14651 10.8317C4.23412 10.7272 4.32655 10.6251 4.42405 10.5256L3.70972 9.82578ZM3.38031 10.1891C3.26182 10.3304 3.15085 10.4752 3.04698 10.6229L3.86513 11.198C3.95299 11.0729 4.04666 10.9507 4.14651 10.8317L3.38031 10.1891ZM4.56232 12.3404C4.75905 12.3318 4.95921 12.3274 5.16257 12.3276L5.16331 11.3276C4.94535 11.3274 4.73031 11.3321 4.51845 11.3414L4.56232 12.3404ZM3.42073 10.8745L4.82026 12.1917L5.50562 11.4635L4.10609 10.1463L3.42073 10.8745ZM5.16257 12.3276C5.32165 12.3277 5.48267 12.3306 5.6455 12.3362L5.68007 11.3368C5.50611 11.3308 5.33381 11.3277 5.16331 11.3276L5.16257 12.3276ZM6.02332 11.4901L4.42741 9.82925L3.70636 10.5221L5.30226 12.1829L6.02332 11.4901ZM4.04825 9.50401C3.93252 9.60636 3.81959 9.71363 3.70972 9.82578L4.42405 10.5256C4.51726 10.4304 4.6129 10.3396 4.71075 10.2531L4.04825 9.50401ZM5.6455 12.3362C5.83426 12.3427 6.02545 12.353 6.21886 12.3671L6.29163 11.3698C6.08566 11.3547 5.88174 11.3438 5.68007 11.3368L5.6455 12.3362ZM4.01566 10.2215L5.89141 12.2114L6.61908 11.5255L4.74334 9.53558L4.01566 10.2215ZM6.21886 12.3671C6.35951 12.3774 6.50133 12.3897 6.64424 12.404L6.74417 11.409C6.59228 11.3938 6.44141 11.3807 6.29163 11.3698L6.21886 12.3671ZM6.64424 12.404C6.79464 12.4191 6.94624 12.4365 7.09895 12.4562L7.22695 11.4644C7.06496 11.4435 6.904 11.4251 6.74417 11.409L6.64424 12.404ZM4.42557 9.19496C4.29688 9.29243 4.171 9.39545 4.04825 9.50401L4.71075 10.2531C4.81453 10.1613 4.9208 10.0743 5.02931 9.99215L4.42557 9.19496ZM7.07511 11.5826L5.10835 9.26966L4.34653 9.91745L6.3133 12.2304L7.07511 11.5826ZM4.8984 8.86944C4.73716 8.96997 4.57937 9.07849 4.42557 9.19496L5.02931 9.99215C5.15898 9.89395 5.29185 9.80257 5.42748 9.71801L4.8984 8.86944ZM4.76067 9.59067L6.74269 12.2758L7.54724 11.6819L5.56521 8.99678L4.76067 9.59067ZM6.92635 11.2459C6.84314 11.4237 6.76299 11.602 6.68587 11.7808L7.60407 12.1769C7.67718 12.0074 7.75317 11.8383 7.83206 11.6698L6.92635 11.2459ZM5.37204 8.60189C5.21132 8.68368 5.05328 8.77287 4.8984 8.86944L5.42748 9.71801C5.55776 9.63678 5.69061 9.56182 5.82561 9.49311L5.37204 8.60189ZM7.78139 11.1608L6.001 8.75043L5.19664 9.34457L6.97703 11.7549L7.78139 11.1608ZM5.80191 8.40326C5.65678 8.46374 5.51338 8.52995 5.37204 8.60189L5.82561 9.49311C5.94434 9.43268 6.06476 9.37708 6.18659 9.32631L5.80191 8.40326ZM7.62252 12.1573C7.75413 11.8502 7.89573 11.5444 8.04731 11.2409L7.15269 10.7941C6.99236 11.1151 6.8426 11.4386 6.70339 11.7634L7.62252 12.1573ZM5.59346 9.16373L7.19921 11.3165L8.00079 10.7186L6.39503 8.56583L5.59346 9.16373ZM8.04731 11.2409C8.11182 11.1118 8.17813 10.983 8.24624 10.8548L7.36309 10.3857C7.29104 10.5214 7.22091 10.6575 7.15269 10.7941L8.04731 11.2409ZM6.21855 8.24687C6.07831 8.29386 5.93934 8.34599 5.80191 8.40326L6.18659 9.32631C6.30195 9.27824 6.41858 9.23448 6.53626 9.19505L6.21855 8.24687ZM8.20438 10.3199L6.77712 8.42058L5.97769 9.02133L7.40495 10.9206L8.20438 10.3199ZM6.6529 8.11873C6.50699 8.15605 6.36211 8.19876 6.21855 8.24687L6.53626 9.19505C6.65673 9.15469 6.7783 9.11885 6.90072 9.08753L6.6529 8.11873ZM8.24624 10.8548C8.30907 10.7365 8.37345 10.6186 8.43935 10.5013L7.56739 10.0117C7.49766 10.1359 7.42956 10.2606 7.36309 10.3857L8.24624 10.8548ZM8.43935 10.5013C8.76641 9.91873 9.13119 9.34833 9.53359 8.79754L8.72614 8.20761C8.29959 8.79145 7.91337 9.39545 7.56739 10.0117L8.43935 10.5013ZM6.37525 8.90103L7.60181 10.5544L8.40493 9.95856L7.17837 8.30522L6.37525 8.90103ZM7.82377 9.55261C7.49255 10.1091 7.19367 10.6747 6.92635 11.2459L7.83206 11.6698C8.08552 11.1282 8.36894 10.5919 8.68308 10.0641L7.82377 9.55261ZM7.17171 8.00937C6.99768 8.03836 6.82459 8.07481 6.6529 8.11873L6.90072 9.08753C7.04477 9.05068 7.19 9.0201 7.336 8.99578L7.17171 8.00937ZM8.65045 9.50442L7.65088 8.19865L6.85683 8.8065L7.8564 10.1123L8.65045 9.50442ZM7.54816 7.95845C7.42232 7.97157 7.29678 7.98854 7.17171 8.00937L7.336 8.99578C7.44093 8.97831 7.54626 8.96407 7.65184 8.95306L7.54816 7.95845ZM8.03856 9.20033C7.96551 9.31733 7.89392 9.43477 7.82377 9.55261L8.68308 10.0641C8.7496 9.95231 8.8175 9.84093 8.88679 9.72997L8.03856 9.20033ZM7.2199 8.7806L8.08258 9.79L8.84277 9.14031L7.9801 8.13091L7.2199 8.7806ZM10.6488 5.88457C9.72488 6.82764 8.92487 7.83422 8.24343 8.8793L9.08109 9.42549C9.72737 8.43434 10.4863 7.47941 11.3631 6.58438L10.6488 5.88457ZM8.24343 8.8793C8.17391 8.98592 8.10562 9.09294 8.03856 9.20033L8.88679 9.72997C8.95039 9.62812 9.01515 9.52662 9.08109 9.42549L8.24343 8.8793ZM9.21206 8.00938C8.84078 7.9475 8.46517 7.91965 8.08995 7.92582L8.10639 8.92569C8.42118 8.92051 8.73626 8.94388 9.04767 8.99578L9.21206 8.00938ZM8.08995 7.92582C7.90909 7.9288 7.72832 7.93967 7.54816 7.95845L7.65184 8.95306C7.80299 8.93731 7.95465 8.92818 8.10639 8.92569L8.08995 7.92582ZM9.05722 8.84579L8.49313 8.11915L7.70321 8.73236L8.2673 9.459L9.05722 8.84579Z" fill="black"/>
</svg>
