<svg width="1024" height="1024" viewBox="0 0 1024 1024" fill="none" xmlns="http://www.w3.org/2000/svg">
<rect width="1024" height="1024" rx="300" fill="black"/>
<path d="M358.608 333.765C351.632 333.434 345.633 335.034 340.852 340.134C337.528 343.68 334.318 343.459 330.258 341.313C322.815 337.381 314.903 334.637 306.457 333.618C304.789 333.416 302.63 334.039 301.56 331.365C305.717 327.345 310.662 324.386 315.867 321.803C345.009 307.346 376.379 300.368 408.106 294.927C434.059 290.478 460.326 288.708 486.598 286.865C511.959 285.084 537.323 284.496 562.692 284.635C596.476 284.819 630.202 286.913 663.765 290.927C681.256 293.019 698.679 295.68 716.406 300.166C701.89 306.225 689.237 313.978 678.158 324.125C675.212 326.826 673.116 327.41 669.983 324.374C665.349 319.883 659.582 318.601 653.163 319.59C643.723 321.043 634.196 321.651 624.682 322.475C581.743 326.195 538.714 328.084 495.677 330.114C482.191 330.751 468.676 331.071 455.205 332.025" fill="#E14444"/>
<path d="M676.807 401.985C680.154 402.977 683.25 404.636 686.464 405.969C706.43 414.261 725.954 423.541 745.446 432.85C772.673 445.855 800.692 457.438 825.291 475.397C834.584 467.114 838.984 456.329 840.724 444.352C841.107 441.709 840.771 438.507 839.564 436.189C837.563 432.344 837.88 428.661 838.407 424.722C844.12 382.029 834.209 342.904 811.39 306.736C809.996 304.528 808.345 302.909 805.825 301.773C750.133 276.698 692.561 257.672 632.305 247.011C563.721 234.876 495.222 234.797 426.745 247.697C355.775 261.067 289.448 287.024 225.853 320.819C219.059 324.428 212.878 328.25 207.918 333.112L208.006 333.219C208.006 333.219 207.971 333.252 207.917 333.306C207.898 333.324 207.882 333.34 207.856 333.365C207.798 333.42 207.728 333.491 207.638 333.582C207.596 333.622 207.559 333.661 207.512 333.709C207.41 333.813 207.295 333.934 207.162 334.072C207.112 334.126 207.068 334.171 207.012 334.231C206.627 334.641 206.144 335.175 205.574 335.841C205.51 335.916 205.44 335.999 205.374 336.078C205.151 336.342 204.918 336.621 204.672 336.923C204.576 337.041 204.478 337.162 204.378 337.286C204.134 337.59 203.88 337.913 203.616 338.252C203.52 338.379 203.426 338.498 203.325 338.629C198.325 345.183 190.535 357.79 186.158 376.893L186.157 376.9C184.171 385.58 182.881 395.586 182.892 406.99C182.893 407.023 182.893 407.053 182.892 407.085C182.892 407.095 182.892 407.104 182.89 407.114C182.889 409.441 182.789 411.663 182.596 413.781C182.216 428.154 183.639 442.462 187.172 456.684C188.144 460.602 188.285 464.342 187.402 468.346C185.293 477.895 195.079 499.576 203.359 504.363C204.186 504.841 205.124 504.895 206.064 504.84C212.384 500.906 217.534 495.489 223.764 491.375C259.494 467.775 296.288 445.984 333.718 425.206C344.514 419.213 355.437 413.527 366.53 408.156C368.772 407.069 373.053 409.089 374.293 407.462C382.922 389.303 349.499 372.274 349.499 372.274C344.061 370.59 342.532 366.82 342.588 361.622C342.706 350.601 349.557 344.031 360.688 344.238C370.886 344.424 376.088 344.597 387.098 344.176C387.098 344.176 599.545 337.025 659.263 329.927C670.089 328.639 678.466 339.611 676.268 351.599C675.954 353.32 674.764 354.503 673.213 355.193C664.91 358.884 660.969 366.365 657.183 373.867C657.183 373.867 648.562 391.405 650.597 400.359C652.633 409.313 666.556 403.885 666.556 403.885L676.807 401.985Z" fill="#E14444"/>
<path d="M365.41 406.939C364.747 407.327 364.006 407.706 363.168 408.088C349.027 414.544 335.268 421.909 321.711 429.534C312.833 434.526 304.068 439.757 295.28 444.918C277.114 455.582 259.106 466.53 241.324 477.819C228.869 485.725 215.553 492.626 206.104 504.546C206.778 505.114 207.371 505.838 208.135 506.226C217.087 510.759 225.836 508.687 234.451 505.192C272.409 489.791 307.353 468.892 341.344 446.293C347.608 442.129 351.908 439.326 359.365 433.937C371.395 424.229 374.738 413.886 375.209 406.259C372.129 405.087 368.714 405.833 365.41 406.939Z" fill="#B83734"/>
<path d="M196.199 369.563C204.694 336.837 236.664 327.012 263.27 335.624C286.82 343.246 306.572 356.356 324.621 372.723C328.231 375.998 328.079 377.447 323.641 380.048C300.43 393.651 277.654 407.997 254.342 421.421C235.837 432.077 217.612 443.172 199.36 454.239C196.854 455.759 195.409 455.971 194.949 452.222C192.669 433.673 188.459 415.329 190.364 396.387C191.324 386.866 192.781 377.553 196.199 369.563Z" fill="#B63734"/>
<path d="M820.779 420.215C807.589 414.009 795.012 408.137 782.473 402.183C769.527 396.035 756.659 389.718 743.68 383.639C727.339 375.986 710.94 368.456 694.52 360.979C691.317 359.521 692.375 358.099 694.059 356.362C710.699 339.199 728.867 323.914 751.576 315.638C768.955 309.305 786.377 309.957 801.964 321.484C814.182 330.52 820.012 343.887 824.008 357.795C829.298 376.22 830.284 395.208 828.368 414.317C827.572 422.258 827.253 422.541 820.779 420.215Z" fill="#B83734"/>
<path d="M658.243 393.08C658.941 393.403 659.714 393.712 660.582 394.014C675.271 399.1 689.667 405.128 703.888 411.433C713.198 415.562 722.416 419.941 731.655 424.246C750.748 433.141 769.713 442.334 788.486 451.886C801.634 458.575 815.545 464.186 826.08 475.154C825.465 475.786 824.941 476.563 824.216 477.021C815.735 482.381 806.827 481.148 797.923 478.485C758.676 466.749 721.907 449.257 685.928 429.98C679.297 426.427 674.751 424.043 666.816 419.384C653.922 410.861 647.784 404.816 650.76 393.169C653.728 392.3 654.848 392.294 658.243 393.08Z" fill="#B83734"/>
<path d="M728.461 300.498L715.862 297.79L715.855 297.793C715.53 297.693 715.212 297.607 714.89 297.55C698.959 294.728 683.099 291.197 667.045 289.431C629.061 285.254 590.984 282.81 552.675 282.991C517.401 283.158 482.304 284.952 447.211 288.168C412.635 291.334 378.636 297.283 345.544 307.868C330.035 312.828 314.778 318.519 301.642 328.569C300.097 329.752 297.269 330.444 297.895 333.058C298.004 333.505 298.17 333.85 298.381 334.125C298.48 334.285 298.6 334.445 298.762 334.609C300.368 336.236 311.764 342.4 328.451 354.052C330.24 355.301 332.72 354.748 333.783 352.844C335.128 350.436 337.108 347.204 339.432 344.311C340.126 343.777 345.859 335.943 355.365 335.476C363.926 335.057 372.515 336.18 381.08 335.998C385.276 335.975 389.901 335.904 394.729 335.803L438.159 334.401C444.659 334.139 449.998 333.904 453.342 333.755C454.454 333.545 468.242 333.556 473.791 333.268C501.119 331.844 528.439 330.276 555.768 328.889C588.435 327.23 621.106 325.619 653.565 321.34C660.457 320.432 673.02 321.999 677.605 327.431C677.686 327.576 677.781 327.696 677.907 327.77C678.769 328.909 679.562 329.566 680.354 329.804C681.122 330.525 681.958 331.352 682.79 332.2C685.705 335.169 690.381 335.5 693.705 332.996L729.655 305.921C731.742 304.347 731.017 301.047 728.461 300.498Z" fill="#B83734"/>
<path d="M264.833 764.186C263.857 761.264 262.894 758.581 259.465 757.275C257.643 756.579 255.333 754.562 255.055 752.851C253.812 745.168 250.252 725.277 250.397 721.695C251.11 703.978 249.806 686.249 250.813 668.541C250.881 667.343 250.924 666.145 251.102 664.944C251.68 661.11 252.677 657.013 257.732 659.251C270.477 664.898 283.797 662.087 296.84 662.286C319.358 662.633 341.887 662.032 364.415 661.938C394.848 661.81 425.282 662.032 455.716 661.605C477.522 661.302 499.333 661.385 521.143 661.308C543.429 661.227 565.718 661.005 588.002 660.922C611.483 660.833 634.971 660.612 658.457 660.718C679.541 660.81 700.637 660.698 721.727 660.375C737.542 660.133 753.358 659.934 769.172 660.011C776.937 660.048 784.507 659.796 791.727 656.591C793.685 655.722 795.711 654.84 797.967 655.518C799.334 684.849 798.55 714.204 798.797 743.545C798.869 752.13 791.853 755.349 785.387 758.608C780.876 761.904 775.509 762.297 770.318 762.33C742.879 762.507 715.441 762.909 687.998 762.766C678.481 762.718 668.911 764.025 659.536 761.309C635.106 761.209 610.674 760.972 586.243 761.041C550.54 761.143 514.837 761.502 479.135 761.68C451.338 761.822 423.542 761.92 395.747 761.852C392.408 761.844 267.452 764.037 264.833 764.186Z" fill="#B83734"/>
<path d="M797.97 655.518C789.988 661.144 781.019 662.41 771.446 662.398C749.293 662.37 727.131 661.987 704.985 663.168C697.13 663.587 689.294 662.629 681.362 662.948C665.174 663.605 648.913 662.331 632.713 662.85C610.798 663.552 588.884 662.545 566.963 663.638C551.739 664.397 536.44 663.511 521.175 663.609C498.065 663.758 474.948 663.162 451.843 664.281C444.466 664.639 437.056 664.501 429.666 664.367C404.16 663.909 378.653 664.624 353.164 664.444C337.655 664.335 322.153 665.069 306.64 664.564C296.897 664.247 287.125 664.874 277.366 665.079C271.347 665.204 264.998 665.402 259.839 662.345C253.629 658.662 252.866 661.481 252.778 666.627C249.34 665.479 249.741 662.485 250.295 660.141C252.227 651.972 252.182 643.777 251.725 635.485C251.562 632.508 251.674 629.232 254.797 627.305C257.598 627.183 259.62 629.314 262.181 629.883C268.64 631.318 274.776 631.458 280.964 628.025C312.539 610.504 334.919 584.635 349.975 552.22C363.631 522.819 370.78 491.632 375.442 459.636C378.529 438.445 380.045 417.158 380.785 395.883C381.624 371.731 381.776 347.507 381.064 323.318C380.791 314.091 383.291 310.664 392.599 309.408C401.414 308.218 410.27 308.213 419.155 309.095C425.26 309.702 427.836 312.664 428.31 318.786C429.717 336.956 430.47 355.162 431.741 373.332C431.414 377.35 427.996 378.546 425.279 380.41C410.39 390.629 398.194 403.234 390.911 420.013C386.382 430.445 383.217 441.174 385.407 452.788C385.803 454.892 386.017 457.065 385.601 459.228C383.559 471.025 387.909 481.508 393.018 491.518C404.319 513.655 422.904 528.289 445.06 538.156C490.258 558.282 536.613 559.423 583.36 543.996C608.047 535.849 629.157 522.11 644.788 500.886C650.376 493.297 654.874 485.118 655.864 475.478C656.603 468.273 656.388 468.312 649.299 468.633C638.97 469.098 628.66 468.808 618.748 465.255C616.529 464.46 614.207 463.81 612.325 461.299C614.946 458.411 617.928 459.354 620.824 459.969C630.436 462.014 639.941 464.389 649.988 462.79C662.032 460.875 664.881 455.826 659.666 444.436C658.827 442.962 658.44 441.328 658.244 439.674C655.18 413.813 639.958 395.855 620.088 380.915C617.857 379.237 614.903 378.162 614.978 374.608C616.166 356.182 618.685 337.845 617.977 319.308C617.723 312.65 620.594 309.512 627.021 308.402C637.306 306.627 647.597 307.494 657.865 308.678C663.178 309.29 664.899 312.73 665.116 317.699C665.851 334.466 665.45 351.246 665.923 368.015C667.328 417.759 671.002 467.237 686.107 515.037C697.34 550.585 714.77 582.543 743.341 607.498C745.01 608.956 747.546 610.253 746.343 613.319C740.878 615.852 735.096 614.051 729.477 614.508C727.129 614.7 724.724 614.209 722.361 614.761C705.883 614.822 689.423 615.586 672.947 615.798C650.455 616.091 627.962 615.917 605.471 616.128C582.722 616.339 559.967 616.398 537.215 616.397C513.267 616.397 489.316 616.588 465.369 616.468C450.063 616.392 434.717 617.003 419.458 615.846C410.095 615.138 400.783 616.586 391.483 615.498C383.799 614.257 375.9 616.034 370.478 614.732C379.885 614.729 391.478 615.942 403.153 615.652C411.075 614.503 418.968 615.949 426.839 616.239C437.857 616.647 448.854 616.04 459.879 616.555C487.409 617.845 514.974 618.109 542.539 618.463C583.088 618.983 623.577 617.128 664.087 616.351C685.337 615.943 706.605 615.565 727.835 614.48C735.083 614.575 742.357 615.143 749.526 613.507C755.207 615.979 760.441 619.353 765.379 622.967C773.214 628.701 781.177 630.17 790.098 626.194C792.05 625.325 794.109 624.672 796.314 624.821C798.017 632.681 796.533 640.678 797.336 648.578C797.571 650.889 797.76 653.203 797.97 655.518Z" fill="#E14444"/>
<path d="M658.697 301.646C664.645 303.321 668.08 305.169 669.935 313.714C670.462 316.142 670.06 337.82 670.081 340.048C670.24 358.041 670.189 376.047 670.836 394.024C672.197 431.95 676.042 469.537 686.004 506.362C690.383 522.552 697.543 534.802 712.773 544.532C742.38 563.446 767.443 588.222 789.909 615.379C792.333 618.31 794.998 621.119 796.314 624.821C785.748 631.5 775.323 633.431 764.784 624.554C760.435 620.89 754.364 619.624 750.683 614.9C752.509 613.064 754.817 614.825 757.068 614.126C753.33 613.811 749.736 614.659 746.465 612.833C721.017 592.032 703.375 565.603 691.279 535.356C678.246 502.767 671.28 468.703 668.042 433.856C665.881 410.61 663.571 387.383 664.041 363.949C664.362 347.988 663.442 332.004 663.234 316.03C663.186 312.375 661.588 310.809 658.122 310.548C648.094 309.789 638.078 308.797 628.014 310.028C621.257 310.856 619.395 314.048 619.847 321.589C620.899 339.124 618.228 356.501 616.949 373.934C616.907 374.506 616.095 375.02 615.643 375.562C610.783 375.823 607.786 373.339 606.005 369.038C606.506 351.308 606.928 333.576 607.68 315.854C607.864 311.551 610.147 306.188 614.238 304.485C627.716 298.873 645.163 299.291 658.697 301.646Z" fill="#B83734"/>
<path d="M659.536 761.309C662.11 759.114 665.046 760.557 667.815 760.534C692.297 760.328 716.78 759.923 741.259 760.11C756.007 760.222 770.719 760.333 785.388 758.609C784.352 772.942 774.595 782.418 760.028 782.592C734.826 782.893 709.619 782.995 684.416 782.952C671.614 782.93 662.858 775.07 659.536 761.309Z" fill="#9C231D"/>
<path d="M380.827 779.491C374.059 784.519 366.136 784.498 358.273 784.537C335.853 784.647 313.432 784.622 291.013 784.76C285.394 784.793 280.187 783.545 275.286 780.871C270.01 776.433 265.316 771.63 264.838 764.188C265.413 762.331 264.832 760.272 268.61 760.834C291.068 764.172 313.676 762.159 336.234 762.102C351.924 762.063 367.616 762.185 383.306 762.311C385.868 762.331 388.825 762.079 389.237 765.865C388.738 771.827 384.466 775.465 380.827 779.491Z" fill="#9C231C"/>
<path d="M255.663 627.731C279.118 591.266 306.065 558.056 344.647 536.538C352.745 532.021 356.104 526.226 359.366 517.949C391.161 437.307 374.991 324.311 373.998 317.78C372.37 307.066 386.692 300.787 378.061 302.645C372.067 303.934 425.885 296.943 429.504 301.264C433.278 305.771 435.4 313.434 436.352 319.906C438.052 321.125 438.105 330.048 438.202 332C438.906 346.328 441.382 353.47 441.228 367.849C439.047 372.006 436.201 375.095 430.903 374.172C426.994 366.815 429.269 358.727 428.359 351.014C426.994 339.449 426.827 327.74 426.243 316.087C426.098 313.162 424.704 311.701 421.888 311.406C410.911 310.257 399.958 309.974 389.043 312.094C384.141 313.046 382.373 316.013 382.693 320.848C383.984 340.398 382.676 359.973 383.022 379.517C383.413 401.644 381.655 423.627 379.431 445.511C375.584 483.389 367.435 520.459 351.252 555.165C341.404 576.284 327.517 594.977 310.012 610.418C300.4 618.895 289.937 626.653 277.992 631.981C271.731 634.776 260.372 632.788 255.663 627.731Z" fill="#B83734"/>
<path d="M430.902 374.174C433.953 372.43 437.004 370.687 440.057 368.944C441.802 365.699 445.062 364.604 448.161 363.364C498.915 343.049 549.455 343.05 599.756 365.01C602.635 366.267 605.433 367.623 607.108 370.489C609.952 372.181 612.795 373.871 615.638 375.561C630.366 385.665 643.425 397.376 651.989 413.394C657.024 422.81 659.85 432.829 660.02 443.547C648.252 453.816 634.914 458.898 619.155 455.809C617.046 455.395 615.067 454.422 613.024 453.723C610.018 452.694 607.312 452.476 606.02 456.25C604.795 459.826 606.811 461.625 609.653 462.996C621.715 468.81 634.718 469.194 647.697 469.325C656.484 469.414 658.06 471.467 654.381 479.414C651.944 484.677 648.41 489.255 645.143 494.004C619.463 524.927 585.12 539.308 546.425 544.079C514.69 547.993 483.337 545.15 453.218 533.379C428.592 523.754 407.535 509.463 392.801 486.953C388.956 478.861 384.191 471.095 383.86 461.745C383.825 460.774 383.741 459.882 384.393 459.09C378.951 431.529 390.578 410.115 408.956 391.197C415.455 384.507 423.32 379.506 430.902 374.174Z" fill="#F26E6B"/>
<path d="M643.678 493.065C646.859 487.452 651.009 482.458 653.652 476.472C655.896 471.387 654.912 470.411 649.374 470.849C634.427 472.029 619.888 470.335 606.074 463.642C599.643 460.526 604.31 456.767 604.715 453.418C605.133 449.963 608.284 449.336 610.818 450.71C627.249 459.615 641.738 453.265 656.108 445.355C657.364 444.664 658.716 444.146 660.024 443.547C667.839 446.764 662.473 453.075 663.32 457.909C664.009 461.842 660.804 462.44 658.001 463.269C645.107 467.082 632.447 465.12 619.867 461.713C618.012 461.211 616.273 460.45 613.518 461.172C626.344 466.734 639.031 467.987 652.032 466.12C656.741 465.443 658.633 465.704 658.338 471.512C657.498 487.968 648.942 500.405 638.33 511.658C611.627 539.973 577.289 551.244 539.688 555.187C506.335 558.684 474.35 553.696 443.923 539.812C420.986 529.345 402.093 513.984 390.352 491.093C386.177 482.951 383.981 474.075 382.797 465.015C382.536 463.021 382.223 460.609 384.4 459.089C385.288 468.822 390.356 477.062 393.942 485.831C399.662 499.453 410.666 508.486 422.271 516.36C466.175 546.142 514.42 551.657 565.362 540.526C593.174 534.449 617.76 522.369 637.625 501.582C640.031 499.063 642.922 496.797 643.678 493.065Z" fill="#B83734"/>
<path d="M728.747 615.77C689.963 617.149 651.18 618.482 612.399 619.918C577.179 621.222 541.942 621.229 506.726 620.365C471.968 619.514 437.231 617.825 402.485 616.504C398.644 616.12 394.266 618.386 391.195 614.214C437.029 614.127 482.863 614.017 528.695 613.963C571.895 613.913 615.093 613.921 658.29 613.905C679.89 613.898 701.487 613.898 723.084 613.896C725.164 613.941 727.879 612.066 728.747 615.77Z" fill="#F2F1F1"/>
<path d="M391.2 614.212C394.568 616.919 398.874 615.005 402.488 616.503C390.362 618.082 378.451 615.717 366.456 614.449C374.726 615.237 382.933 612.481 391.2 614.212Z" fill="#E89895"/>
<path d="M728.75 615.77C727.334 613.72 724.859 614.869 723.086 613.895C730.788 611.542 738.755 614.998 746.465 612.835L757.747 613.624C757.752 613.949 757.761 614.276 757.766 614.602C755.407 614.703 753.045 614.802 750.685 614.902C743.371 615.192 736.062 615.48 728.75 615.77Z" fill="#E7AFAF"/>
<path d="M457.295 430.904C461.388 409.723 476.677 399.867 495.495 394.602C519.631 387.847 543.328 389.263 565.362 402.359C576.323 408.874 583.381 418.518 585.678 431.307C585.388 449.975 573.081 459.853 558.051 466.139C531.514 477.239 504.767 476.662 478.735 463.604C472.416 460.436 467.577 455.489 462.736 450.394C457.306 444.682 458.184 437.644 457.295 430.904Z" fill="#E14444"/>
<path d="M457.291 430.904C464.165 455.316 480.628 468.512 506.638 470.425C517.839 471.25 528.974 472.498 540.215 469.92C562.16 464.885 580.117 455.481 585.675 431.306C589.287 450.877 579.702 464.886 564.304 473.876C534.883 491.055 504.567 491.038 475.582 472.188C460.995 462.701 454.03 448.811 457.291 430.904Z" fill="#B83736"/>
<path d="M509.21 535.734C501.206 535.53 495.395 531.041 493.694 523.746C492.37 518.072 495.681 512.296 502.466 509.031C512.718 504.096 522.796 504.38 532.607 510.423C538.262 513.907 540.359 518.829 538.435 525.139C536.758 530.643 529.373 535.524 523.752 535.262C520.505 535.353 521.607 532.94 521.598 531.331C521.58 527.81 519.181 526.75 516.455 526.86C513.748 526.97 511.161 528.016 512.147 531.75C512.827 534.321 512.303 535.963 509.21 535.734Z" fill="#B53633"/>
<path d="M643.677 493.065C643.726 499.749 638.224 503.136 634.356 506.815C615.227 525.013 592.38 536.073 566.573 541.997C543.944 547.192 521.293 549.269 498.36 546.321C459.243 541.297 424.502 527.136 398.516 495.96C396.157 493.13 392.374 490.584 393.945 485.831C413.742 515.071 442.659 530.776 475.886 538.504C513.258 547.195 550.637 545.919 586.989 532.383C609.171 524.123 628.54 511.59 643.677 493.065Z" fill="#9E2520"/>
<path d="M461.554 525.006C450.446 527.66 436.39 515.08 441.642 506.316C450.801 493.839 470.04 492.472 484.1 503.373C488.35 511.445 485.79 518.848 476.99 523.008C473.378 524.715 469.512 526.048 465.329 525.312C464.097 523.567 465.113 521.957 466.109 520.833C471.14 515.158 466.58 515.411 462.868 515.065C464.647 515.23 467.361 515.486 467.061 517.605C466.622 520.713 465.075 523.802 461.554 525.006Z" fill="#B63734"/>
<path d="M436.468 439.467C439.01 448.527 434.572 454.48 422.139 458.688C419.798 456.668 417.634 454.357 414.366 453.835C412.361 453.515 410.305 452.942 410.553 450.475C410.838 447.62 413.277 447.37 414.678 447.384C413.198 447.616 410.127 447.058 409.827 450.646C409.56 453.858 412.311 453.5 414.32 453.986C416.57 454.529 418.368 455.554 418.037 458.344C406.601 461.897 394.256 455.645 391.927 445.195C391.438 442.999 390.984 440.955 393.045 439.312C402.126 430.311 412.644 427.701 425.004 431.428C429.899 432.903 432.703 436.725 436.468 439.467Z" fill="#B83736"/>
<path d="M602.207 383.202C603.328 390.291 598.909 393.874 593.584 396.941C589.999 399.007 586.092 399.933 582.058 400.492C579.557 397.427 581.818 392.888 578.315 389.253C579.859 392.545 580.582 395.086 578.274 397.409C577.758 399.227 576.723 400.074 574.67 400.043C566.452 399.922 558.726 392.918 557.476 384.277C561.545 371.922 571.726 370.809 582.454 370.692C586.705 372.39 590.71 374.765 595.335 375.485C599.338 376.529 600.341 380.248 602.207 383.202Z" fill="#B83734"/>
<path d="M475.955 394.623C471.962 400.205 467.409 395.891 463.285 395.068C456.562 393.728 451.783 389.756 449.955 382.797C449.393 380.66 448.874 378.623 450.9 376.947C452.831 375.828 453.654 373.255 456.185 372.909C462.604 371.262 468.652 368.369 475.241 367.289C483.534 366.979 489.708 370.873 494.715 377.089C496.489 387.04 490.96 393.874 480.361 394.828C477.414 393.677 474.383 392.919 476.835 388.404C478.634 385.093 475.673 384.665 471.839 383.957C475.728 385.013 478.444 386.6 476.026 388.901C473.383 391.415 476.198 392.784 475.955 394.623Z" fill="#B83736"/>
<path d="M420.643 419.761C411.039 417.319 407.077 411.051 409.966 402.866C420.154 392.367 432.038 390.17 446.09 396.232C447.202 396.713 448.318 396.992 449.506 397.08C454.3 400.295 455.726 404.973 454.097 410.16C452.253 416.029 447.456 419.268 441.807 421.085C438.797 422.054 437.719 418.441 435.305 417.8C433.191 416.519 434.164 413.912 432.846 412.117C427.292 412.246 426.62 420.344 420.643 419.761Z" fill="#B83736"/>
<path d="M416.596 491.581C415.255 493.856 414.187 495.607 410.901 493.477C404.94 489.613 402.493 484.352 404.47 477.693C416.217 463.007 439.155 464.661 448.252 477.831C451.406 484.138 447.155 488.146 443.404 491.881C440.668 494.604 437.294 497.565 432.903 494.187C430.451 494.403 428.348 492.983 425.966 492.737C423.841 492.516 420.543 494.174 419.945 490.975C419.447 488.317 422.795 487.698 424.382 486.465C421.255 487.069 419.894 490.793 416.596 491.581Z" fill="#B63734"/>
<path d="M524.809 387.741C511.641 387.534 504.648 381.564 504.774 370.635C508.039 365.869 511.478 361.33 517.843 360.589C524.709 361.627 531.626 361.963 538.549 362.135C543.17 361.647 545.344 365.63 548.594 367.655C551.563 379.589 541.999 389.446 529.657 387.175C533.42 378.349 533.4 378.282 526.555 376.458C525.642 376.159 526.111 376.706 526.256 376.695C528.557 376.526 530.693 377.164 531.115 379.747C531.9 384.565 528.636 386.431 524.809 387.741Z" fill="#B83736"/>
<path d="M573.183 528.314C568.094 530.526 559.038 528.953 553.55 524.24C549.633 520.876 546.395 516.777 548.407 510.903C555.878 498.405 573.774 496.375 586.557 503.969C587.968 504.807 588.924 506.394 590.771 506.511C595.492 513.756 590.884 525.498 582.873 526.604C578.532 527.204 582.167 522.468 579.687 521.804C576.541 520.985 574.122 518.19 570.445 518.674C568.142 518.977 565.987 519.667 565.285 521.809C564.404 524.492 566.751 525.459 568.778 526.212C570.316 526.785 572.052 526.894 573.183 528.314Z" fill="#B83736"/>
<path d="M632.887 482.057C636.115 490.036 631.894 498.786 623.989 501.036C621.351 501.788 621.558 499.443 620.409 498.595C618.694 497.961 618.165 496.175 616.965 495.055C613.154 491.495 608.336 492.247 605.529 496.763C604.53 498.369 604.472 500.49 602.808 501.73C594.589 499.907 590.701 495.86 589.251 487.623C592.573 472.421 617.319 469.741 628.429 478.619C629.89 479.788 630.887 481.588 632.887 482.057Z" fill="#B83734"/>
<path d="M602.212 383.202C600.184 381.142 598.156 379.083 596.129 377.023C591.761 375.276 587.315 373.723 582.99 371.865C572.901 372.741 562.99 373.988 557.48 384.276C557.791 382.424 557.556 380.212 558.5 378.779C564.681 369.408 574.046 367.908 584.288 368.897C594.553 369.89 599.755 374.05 602.212 383.202Z" fill="#A22621"/>
<path d="M448.251 477.83C447.646 477.915 446.782 478.303 446.469 478.04C432.794 466.514 422.104 465.956 407.575 476.042C406.621 476.705 405.511 477.147 404.471 477.691C408.737 467.174 418.293 465.256 427.576 465.496C436.009 465.714 444.894 467.847 448.251 477.83Z" fill="#A12520"/>
<path d="M632.885 482.058C629.021 484.494 628.318 479.893 626.231 478.743C613.193 471.566 599.091 474.735 589.248 487.626C589.103 478.623 595.521 475.417 602.514 473.162C615.064 469.116 626.081 472.499 632.885 482.058Z" fill="#A12520"/>
<path d="M517.212 361.466C511.982 363.048 509.115 367.839 504.778 370.636C507.575 360.291 516.091 358.116 524.974 356.77C534.756 355.287 544.039 359.722 548.597 367.656C544.326 368.654 543.422 363.297 539.832 363.009C532.325 362.014 524.72 362.461 517.212 361.466Z" fill="#A22925"/>
<path d="M436.464 439.466C432.294 440.075 431.603 435.379 428.173 434.233C416.742 430.412 406.079 429.647 396.43 438.408C395.58 439.179 394.71 441.094 393.043 439.31C397.778 425.365 429.28 422.684 436.464 439.466Z" fill="#A02520"/>
<path d="M590.775 506.511C586.411 509.168 584.856 504.082 581.788 503.049C568.819 498.679 558.066 502.065 548.407 510.904C548.372 508.284 549.816 506.457 551.562 504.705C561.594 494.638 581.545 495.539 590.775 506.511Z" fill="#A12521"/>
<path d="M484.102 503.371C479.178 501.642 474.367 499.416 469.308 498.287C458.769 495.933 449.804 499.954 441.647 506.314C448.66 491.31 472.6 489.65 484.102 503.371Z" fill="#A02520"/>
<path d="M455.38 374.377C453.403 374.391 453.955 378.811 450.902 376.949C455.366 367.954 463.214 365.029 472.554 365.292C481.797 365.551 490.714 366.803 494.713 377.089C488.386 373.015 482.427 368.029 474.158 368.709C467.471 369.184 461.379 371.625 455.38 374.377Z" fill="#A12521"/>
<path d="M449.508 397.079C448.447 398.476 447.08 398.456 445.669 397.807C432.835 391.902 421.291 393.624 411.079 403.554C411.004 403.627 410.352 403.11 409.969 402.867C411.151 397.91 414.78 395.255 419.181 393.647C429.814 389.758 440.123 389.552 449.508 397.079Z" fill="#A12520"/>
<path d="M573.181 528.314C569.1 528.482 564.738 528.936 563.087 523.932C561.954 520.497 564.3 518.379 567.14 517.455C572.246 515.792 577.07 515.853 579.687 521.801C580.408 526.861 577.796 528.588 573.181 528.314Z" fill="#EFE3DF"/>
<path d="M509.207 535.735C509.797 535.053 510.991 534.251 510.883 533.707C509.532 526.909 512.263 523.737 518.759 525.175C522.428 525.988 526.086 527.387 522.871 532.378C522.001 533.729 522.621 534.553 523.748 535.261C523.704 535.498 523.655 535.941 523.613 535.94C518.81 535.895 514.009 535.813 509.207 535.735Z" fill="#E9DBD5"/>
<path d="M602.804 501.732C602.822 496.06 604.844 491.637 611.023 490.98C616.327 490.416 619.725 493.038 620.404 498.596C619.942 500.618 620.157 503.237 616.789 502.693C616.294 502.19 615.922 501.606 615.646 500.959C614.839 499.072 614.466 496.575 611.822 496.565C608.981 496.555 609.139 499.317 608.357 501.13C607.977 502.011 607.428 502.73 606.712 503.342C605.408 502.806 604.108 502.27 602.804 501.732Z" fill="#EBD9D5"/>
<path d="M420.644 419.76C423.31 417.114 425.939 414.431 428.658 411.841C430.135 410.435 431.498 408.189 433.961 409.317C436.509 410.483 435.034 413.035 435.293 414.976C435.417 415.9 435.309 416.853 435.306 417.795C436.341 420.564 437.418 424.076 432.544 422.442C428.6 421.121 423.913 423.508 420.644 419.76Z" fill="#F0E6E4"/>
<path d="M606.716 503.341C606.784 502.405 606.862 501.472 606.919 500.535C607.124 497.17 607.213 493.44 611.839 493.516C616.264 493.588 616.721 497.129 616.855 500.584C616.883 501.284 616.816 501.99 616.792 502.693C613.535 504.508 610.103 503.549 606.716 503.341Z" fill="#BA3C3B"/>
<path d="M416.592 491.58C419.489 486.457 423.913 484.528 430.95 485.066C427.259 488.015 422.551 487.061 420.84 491.307C425.216 490.869 429.809 489.764 432.897 494.182C432.756 496.243 431.687 497.128 429.631 496.766C426.335 495.192 422.945 495.4 419.523 496.246C415.832 496.397 416.669 493.701 416.592 491.58Z" fill="#ECD8D5"/>
<path d="M418.035 458.343C417.2 455.388 414.742 455.168 412.322 455.094C409.794 455.017 407.486 455.143 408.03 451.355C408.489 448.158 409.224 445.718 413.214 446.328C415.733 446.714 418.462 445.629 421.015 447.491C420.27 447.856 419.704 448.259 419.075 448.423C416.529 449.088 412.231 446.788 411.768 450.591C411.349 454.019 415.897 452.058 417.95 453.402C420.044 454.776 422.008 455.903 422.137 458.687C420.77 458.571 419.403 458.458 418.035 458.343Z" fill="#EBD6D5"/>
<path d="M475.961 394.622C474.483 391.891 471.013 393.665 469.095 391.65C470.209 388.734 476.133 391.106 475.071 387.175C474.076 383.484 469.609 386.13 465.524 384.708C469.859 382.123 473.439 382.142 476.738 383.675C480.269 385.315 479.927 387.857 477.443 390.626C477.181 390.915 479.333 393.374 480.366 394.827C478.775 397.364 477.385 395.651 475.961 394.622Z" fill="#ECD6D6"/>
<path d="M524.815 387.742C525.672 386.926 526.493 386.064 527.394 385.302C529.28 383.711 531.23 381.914 530.05 379.292C528.987 376.928 526.44 377.638 524.331 377.588C523.082 377.557 521.613 378.912 520.184 376.574C525.075 374.22 530.03 373.359 533.512 377.861C536.733 382.029 532.35 384.598 529.664 387.173C528.027 387.206 526.716 389.999 524.815 387.742Z" fill="#E8D3D1"/>
<path d="M461.558 525.006C463.064 522.585 464.571 520.166 466.51 517.052C462.698 516.594 459.363 516.193 454.592 515.621C460.932 512.693 465.97 514.228 471.252 514.043C470.57 519.084 466.778 521.57 465.333 525.312C464.03 525.77 462.697 526.586 461.558 525.006Z" fill="#E9D0CD"/>
<path d="M578.272 397.408C578.282 391.835 578.282 391.835 573.962 390.803C575.903 388.501 578.444 387.488 580.668 388.395C582.776 389.256 581.983 392.143 582.148 394.163C582.321 396.256 582.103 398.381 582.056 400.491C579.68 400.832 579.069 399.006 578.272 397.408Z" fill="#EFDFDE"/>
<path d="M419.524 496.244C423.124 491.942 426.546 491.076 429.631 496.766C426.149 498.793 422.788 498.456 419.524 496.244Z" fill="#C24545"/>
<path d="M466.728 418.458C474.695 405.392 487.413 399.599 501.506 396.382C523.115 391.449 543.974 393.426 563.135 405.308C569.996 409.566 576.061 414.951 577.397 423.685C571.024 411.696 560.116 405.48 547.933 401.682C528.621 395.659 509.181 395.937 490.18 403.428C481.364 406.906 473.507 411.891 467.979 419.904C466.689 420.177 466.01 419.923 466.728 418.458Z" fill="#F1EBEB"/>
<path d="M466.72 418.458C467.137 418.939 467.555 419.424 467.972 419.905C466.801 422.922 464.614 425.441 463.919 428.71C462.765 424.634 464.102 421.354 466.72 418.458Z" fill="#EBABA7"/>
<path d="M582.99 371.865C587.806 372.472 592.538 373.29 596.127 377.024C591.072 377.029 586.646 375.432 582.99 371.865Z" fill="#DAA6A2"/>
<path d="M455.375 374.377C460.757 369.579 467.068 367.865 474.153 368.709C468.08 371.22 462.032 373.804 455.375 374.377Z" fill="#DEB0AC"/>
<path d="M517.214 361.468C524.889 359.999 532.504 359.409 539.833 363.011C532.179 364.184 524.574 364.62 517.214 361.468Z" fill="#ECD3D3"/>
<path d="M576.177 523.044C575.749 526.073 572.8 526.308 570.805 526.65C568.611 527.025 566.659 525.208 566.545 522.768C566.405 519.741 568.61 518.632 571.262 518.54C574.162 518.439 575.496 520.326 576.177 523.044Z" fill="#B93D3C"/>
<path d="M520.531 529.77C520.086 531.834 518.571 532.762 516.897 532.721C515.085 532.678 512.751 532.269 512.706 529.853C512.657 527.185 514.944 527.229 516.874 527.286C518.618 527.336 520.141 527.824 520.531 529.77Z" fill="#BE4D4B"/>
<path d="M431.915 413.363C431.801 420.418 431.801 420.418 425.295 419.305C426.803 416.824 428.543 414.782 431.915 413.363Z" fill="#BE4E4F"/>
</svg>
