<svg width="1024" height="1024" viewBox="0 0 1024 1024" fill="none" xmlns="http://www.w3.org/2000/svg">
<rect width="1024" height="1024" rx="200" fill="#282828"/>
<rect x="192" y="210" width="641" height="646" rx="83" fill="#949494"/>
<g filter="url(#filter0_i_12_4)">
<rect x="192" y="168" width="641" height="641" rx="83" fill="#E8E8E8"/>
</g>
<path d="M191.565 251.26C192.835 223.295 209.742 200.768 218.036 193L811 778.245C797.764 794.664 771.293 809.494 746.939 808.964H282.627C213.165 810.659 192.977 751.764 191.565 722.104C191.565 722.104 190.294 279.224 191.565 251.26Z" fill="url(#paint0_linear_12_4)"/>
<g filter="url(#filter1_i_12_4)">
<rect x="192" y="168" width="641" height="641" rx="83" fill="white" fill-opacity="0.01"/>
</g>
<rect x="195" y="171" width="635" height="635" rx="80" stroke="white" stroke-width="6"/>
<g filter="url(#filter2_dd_12_4)">
<path d="M386.133 697.398C371.159 697.398 357.422 693.753 344.922 686.461C332.422 679.039 322.461 669.078 315.039 656.578C307.617 644.078 303.906 630.276 303.906 615.172C303.906 599.938 307.617 586.135 315.039 573.766C322.461 561.266 332.422 551.305 344.922 543.883C357.422 536.331 371.159 532.555 386.133 532.555H438.086V445.055H386.133C371.159 445.055 357.422 441.409 344.922 434.117C332.422 426.695 322.461 416.734 315.039 404.234C307.617 391.734 303.906 377.932 303.906 362.828C303.906 347.594 307.617 333.792 315.039 321.422C322.461 308.922 332.422 299.026 344.922 291.734C357.422 284.312 371.159 280.602 386.133 280.602C401.367 280.602 415.234 284.312 427.734 291.734C440.234 299.026 450.195 308.922 457.617 321.422C465.039 333.792 468.75 347.594 468.75 362.828V414.391H556.25V362.828C556.25 347.594 559.961 333.792 567.383 321.422C574.805 308.922 584.701 299.026 597.07 291.734C609.57 284.312 623.372 280.602 638.477 280.602C653.711 280.602 667.513 284.312 679.883 291.734C692.383 299.026 702.344 308.922 709.766 321.422C717.188 333.792 720.898 347.594 720.898 362.828C720.898 377.932 717.188 391.734 709.766 404.234C702.344 416.734 692.383 426.695 679.883 434.117C667.513 441.409 653.711 445.055 638.477 445.055H586.914V532.555H638.477C653.711 532.555 667.513 536.331 679.883 543.883C692.383 551.305 702.344 561.266 709.766 573.766C717.188 586.135 720.898 599.938 720.898 615.172C720.898 630.276 717.188 644.078 709.766 656.578C702.344 669.078 692.383 679.039 679.883 686.461C667.513 693.753 653.711 697.398 638.477 697.398C623.372 697.398 609.57 693.753 597.07 686.461C584.701 679.039 574.805 669.078 567.383 656.578C559.961 644.078 556.25 630.276 556.25 615.172V563.414H468.75V615.172C468.75 630.276 465.039 644.078 457.617 656.578C450.195 669.078 440.234 679.039 427.734 686.461C415.234 693.753 401.367 697.398 386.133 697.398ZM386.133 666.734C395.768 666.734 404.492 664.456 412.305 659.898C420.117 655.211 426.367 648.961 431.055 641.148C435.742 633.206 438.086 624.547 438.086 615.172V563.414H386.133C376.758 563.414 368.164 565.758 360.352 570.445C352.539 575.133 346.289 581.383 341.602 589.195C336.914 597.008 334.57 605.667 334.57 615.172C334.57 624.547 336.914 633.206 341.602 641.148C346.289 648.961 352.539 655.211 360.352 659.898C368.164 664.456 376.758 666.734 386.133 666.734ZM386.133 414.391H438.086V362.828C438.086 353.323 435.742 344.664 431.055 336.852C426.367 329.039 420.117 322.854 412.305 318.297C404.492 313.609 395.768 311.266 386.133 311.266C376.758 311.266 368.164 313.609 360.352 318.297C352.539 322.854 346.289 329.039 341.602 336.852C336.914 344.664 334.57 353.323 334.57 362.828C334.57 372.333 336.914 380.992 341.602 388.805C346.289 396.617 352.539 402.867 360.352 407.555C368.164 412.112 376.758 414.391 386.133 414.391ZM586.914 414.391H638.477C648.112 414.391 656.771 412.112 664.453 407.555C672.266 402.867 678.451 396.617 683.008 388.805C687.695 380.992 690.039 372.333 690.039 362.828C690.039 353.323 687.695 344.664 683.008 336.852C678.451 329.039 672.266 322.854 664.453 318.297C656.771 313.609 648.112 311.266 638.477 311.266C628.971 311.266 620.312 313.609 612.5 318.297C604.688 322.854 598.438 329.039 593.75 336.852C589.193 344.664 586.914 353.323 586.914 362.828V414.391ZM638.477 666.734C648.112 666.734 656.771 664.456 664.453 659.898C672.266 655.211 678.451 648.961 683.008 641.148C687.695 633.206 690.039 624.547 690.039 615.172C690.039 605.667 687.695 597.008 683.008 589.195C678.451 581.383 672.266 575.133 664.453 570.445C656.771 565.758 648.112 563.414 638.477 563.414H586.914V615.172C586.914 624.547 589.193 633.206 593.75 641.148C598.438 648.961 604.688 655.211 612.5 659.898C620.312 664.456 628.971 666.734 638.477 666.734ZM468.75 532.555H556.25V445.055H468.75V532.555Z" fill="black"/>
</g>
<defs>
<filter id="filter0_i_12_4" x="192" y="168" width="641" height="641" filterUnits="userSpaceOnUse" color-interpolation-filters="sRGB">
<feFlood flood-opacity="0" result="BackgroundImageFix"/>
<feBlend mode="normal" in="SourceGraphic" in2="BackgroundImageFix" result="shape"/>
<feColorMatrix in="SourceAlpha" type="matrix" values="0 0 0 0 0 0 0 0 0 0 0 0 0 0 0 0 0 0 127 0" result="hardAlpha"/>
<feOffset/>
<feGaussianBlur stdDeviation="16.5"/>
<feComposite in2="hardAlpha" operator="arithmetic" k2="-1" k3="1"/>
<feColorMatrix type="matrix" values="0 0 0 0 1 0 0 0 0 1 0 0 0 0 1 0 0 0 1 0"/>
<feBlend mode="normal" in2="shape" result="effect1_innerShadow_12_4"/>
</filter>
<filter id="filter1_i_12_4" x="192" y="168" width="641" height="641" filterUnits="userSpaceOnUse" color-interpolation-filters="sRGB">
<feFlood flood-opacity="0" result="BackgroundImageFix"/>
<feBlend mode="normal" in="SourceGraphic" in2="BackgroundImageFix" result="shape"/>
<feColorMatrix in="SourceAlpha" type="matrix" values="0 0 0 0 0 0 0 0 0 0 0 0 0 0 0 0 0 0 127 0" result="hardAlpha"/>
<feOffset/>
<feGaussianBlur stdDeviation="22"/>
<feComposite in2="hardAlpha" operator="arithmetic" k2="-1" k3="1"/>
<feColorMatrix type="matrix" values="0 0 0 0 1 0 0 0 0 1 0 0 0 0 1 0 0 0 1 0"/>
<feBlend mode="normal" in2="shape" result="effect1_innerShadow_12_4"/>
</filter>
<filter id="filter2_dd_12_4" x="288.906" y="260.602" width="446.992" height="454.797" filterUnits="userSpaceOnUse" color-interpolation-filters="sRGB">
<feFlood flood-opacity="0" result="BackgroundImageFix"/>
<feColorMatrix in="SourceAlpha" type="matrix" values="0 0 0 0 0 0 0 0 0 0 0 0 0 0 0 0 0 0 127 0" result="hardAlpha"/>
<feOffset dy="18"/>
<feComposite in2="hardAlpha" operator="out"/>
<feColorMatrix type="matrix" values="0 0 0 0 0 0 0 0 0 0 0 0 0 0 0 0 0 0 0.25 0"/>
<feBlend mode="normal" in2="BackgroundImageFix" result="effect1_dropShadow_12_4"/>
<feColorMatrix in="SourceAlpha" type="matrix" values="0 0 0 0 0 0 0 0 0 0 0 0 0 0 0 0 0 0 127 0" result="hardAlpha"/>
<feOffset dy="-5"/>
<feGaussianBlur stdDeviation="7.5"/>
<feComposite in2="hardAlpha" operator="out"/>
<feColorMatrix type="matrix" values="0 0 0 0 1 0 0 0 0 1 0 0 0 0 1 0 0 0 1 0"/>
<feBlend mode="normal" in2="effect1_dropShadow_12_4" result="effect2_dropShadow_12_4"/>
<feBlend mode="normal" in="SourceGraphic" in2="effect2_dropShadow_12_4" result="shape"/>
</filter>
<linearGradient id="paint0_linear_12_4" x1="210.095" y1="193.53" x2="811.221" y2="772.72" gradientUnits="userSpaceOnUse">
<stop stop-opacity="0.27"/>
<stop offset="1" stop-color="#D9D9D9" stop-opacity="0"/>
</linearGradient>
</defs>
</svg>
