<svg width="1000" height="1000" viewBox="0 0 1000 1000" fill="none" xmlns="http://www.w3.org/2000/svg">
<rect width="1000" height="1000" rx="300" fill="#6366F1"/>
<path opacity="0.5" fill-rule="evenodd" clip-rule="evenodd" d="M209 345.25C209 338.818 211.551 332.65 216.09 328.103C220.63 323.555 226.788 321 233.208 321H765.792C772.212 321 778.37 323.555 782.91 328.103C787.45 332.65 790 338.818 790 345.25C790 351.681 787.45 357.85 782.91 362.397C778.37 366.945 772.212 369.5 765.792 369.5H233.208C226.788 369.5 220.63 366.945 216.09 362.397C211.551 357.85 209 351.681 209 345.25ZM209 515C209 508.568 211.551 502.4 216.09 497.853C220.63 493.305 226.788 490.75 233.208 490.75H765.792C772.212 490.75 778.37 493.305 782.91 497.853C787.45 502.4 790 508.568 790 515C790 521.431 787.45 527.6 782.91 532.147C778.37 536.695 772.212 539.25 765.792 539.25H233.208C226.788 539.25 220.63 536.695 216.09 532.147C211.551 527.6 209 521.431 209 515ZM209 684.75C209 678.318 211.551 672.15 216.09 667.603C220.63 663.055 226.788 660.5 233.208 660.5H765.792C772.212 660.5 778.37 663.055 782.91 667.603C787.45 672.15 790 678.318 790 684.75C790 691.181 787.45 697.35 782.91 701.897C778.37 706.445 772.212 709 765.792 709H233.208C226.788 709 220.63 706.445 216.09 701.897C211.551 697.35 209 691.181 209 684.75Z" fill="white"/>
<path fill-rule="evenodd" clip-rule="evenodd" d="M209 330.25C209 323.818 211.551 317.65 216.09 313.103C220.63 308.555 226.788 306 233.208 306H765.792C772.212 306 778.37 308.555 782.91 313.103C787.45 317.65 790 323.818 790 330.25C790 336.681 787.45 342.85 782.91 347.397C778.37 351.945 772.212 354.5 765.792 354.5H233.208C226.788 354.5 220.63 351.945 216.09 347.397C211.551 342.85 209 336.681 209 330.25ZM209 500C209 493.568 211.551 487.4 216.09 482.853C220.63 478.305 226.788 475.75 233.208 475.75H765.792C772.212 475.75 778.37 478.305 782.91 482.853C787.45 487.4 790 493.568 790 500C790 506.431 787.45 512.6 782.91 517.147C778.37 521.695 772.212 524.25 765.792 524.25H233.208C226.788 524.25 220.63 521.695 216.09 517.147C211.551 512.6 209 506.431 209 500ZM209 669.75C209 663.318 211.551 657.15 216.09 652.603C220.63 648.055 226.788 645.5 233.208 645.5H765.792C772.212 645.5 778.37 648.055 782.91 652.603C787.45 657.15 790 663.318 790 669.75C790 676.181 787.45 682.35 782.91 686.897C778.37 691.445 772.212 694 765.792 694H233.208C226.788 694 220.63 691.445 216.09 686.897C211.551 682.35 209 676.181 209 669.75Z" fill="white"/>
</svg>
