<svg width="512" height="512" viewBox="0 0 512 512" fill="none" xmlns="http://www.w3.org/2000/svg">
<g clip-path="url(#clip0_819_2)">
<path d="M512 0H0V512H512V0Z" fill="white"/>
<path fill-rule="evenodd" clip-rule="evenodd" d="M369.413 142.587C355.185 128.388 335.906 120.415 315.808 120.415C295.708 120.415 276.43 128.388 262.204 142.587L222.322 182.469H222.324C218.657 186.134 217.226 191.477 218.569 196.484C219.909 201.492 223.821 205.404 228.829 206.744C233.836 208.087 239.177 206.656 242.844 202.989L282.727 163.107H282.724C294.651 151.845 311.602 147.65 327.406 152.048C343.207 156.443 355.556 168.791 359.952 184.593C364.35 200.397 360.154 217.348 348.893 229.275L309.011 269.158V269.155C305.344 272.822 303.912 278.163 305.255 283.17C306.595 288.178 310.508 292.09 315.515 293.431C320.523 294.774 325.866 293.342 329.53 289.675L369.413 249.793V249.796C383.611 235.57 391.584 216.291 391.584 196.191C391.584 176.093 383.61 156.815 369.413 142.587ZM196.215 391.585C216.321 391.641 235.615 383.652 249.797 369.4L289.677 329.521H289.675C293.341 325.857 294.772 320.514 293.43 315.507C292.09 310.5 288.177 306.589 283.17 305.248C278.163 303.905 272.823 305.336 269.156 309.003L229.277 348.882H229.279C220.598 358.074 208.563 363.364 195.919 363.546C183.275 363.725 171.096 358.784 162.155 349.842C153.213 340.901 148.272 328.722 148.451 316.079C148.633 303.435 153.923 291.401 163.115 282.72L202.995 242.84V242.843C206.662 239.176 208.093 233.836 206.75 228.829C205.41 223.822 201.498 219.91 196.491 218.57C191.483 217.227 186.141 218.658 182.476 222.325L142.597 262.203V262.201C128.39 276.421 120.412 295.7 120.414 315.801C120.419 335.902 128.408 355.176 142.622 369.387C156.837 383.599 176.113 391.585 196.215 391.585ZM296.029 201.482C299.872 201.482 303.555 203.012 306.271 205.728C308.988 208.444 310.518 212.128 310.518 215.97C310.518 219.813 308.988 223.499 306.271 226.213L226.207 306.277C222.55 309.935 217.215 311.364 212.217 310.026C207.217 308.685 203.314 304.782 201.974 299.783C200.636 294.785 202.065 289.45 205.723 285.792L285.787 205.728C288.501 203.012 292.187 201.482 296.029 201.482Z" fill="#171717"/>
</g>
<defs>
<clipPath id="clip0_819_2">
<rect width="512" height="512" rx="129" fill="white"/>
</clipPath>
</defs>
</svg>
