<svg width="720" height="720" viewBox="0 0 720 720" fill="none" xmlns="http://www.w3.org/2000/svg">
<rect width="720" height="720" rx="195" fill="#6366F1"/>
<path fill-rule="evenodd" clip-rule="evenodd" d="M217.882 460.388C223.183 354.094 287.849 178.799 518.675 166.485C525.982 166.096 532.199 171.89 531.966 179.202C531.004 209.37 526.078 233.72 513.805 270.791C489.325 271.119 444.909 293.959 438.525 299.286H507.392C472.065 390.873 393.347 481 237.044 483.995C221.845 509.862 209.578 533.013 201.687 549.177C199.964 552.707 195.706 554.172 192.176 552.449C188.647 550.726 187.182 546.467 188.905 542.938C196.49 527.401 207.976 505.659 222.154 481.284C248.575 440.643 277.999 402.183 307.689 374.709C310.589 372.062 310.794 367.564 308.145 364.664C305.497 361.763 300.998 361.559 298.098 364.206C264.246 395.116 238.349 428.496 217.882 460.388Z" fill="white"/>
</svg>
