<svg width="24" height="24" viewBox="0 0 24 24" fill="none" xmlns="http://www.w3.org/2000/svg">
<path d="M1 17.342C3.34456 13.4054 4.86464 5.88504 5.38239 2.26415C5.40375 2.11482 5.53718 2.00945 5.69111 2.02132C9.86724 2.34339 18.5193 2.76123 21.8249 2M6.54072 5.0091C6.74991 5.07719 7.33564 5.21336 8.00504 5.21336M9.46936 5.41763C9.81801 5.48571 10.5571 5.58104 10.7245 5.41763M12.1888 5.41763H13.4439M15.1175 5.41763C15.4661 5.48571 16.2052 5.58104 16.3726 5.41763M18.0461 5.41763H19.3012M21.7239 3.30526C21.2387 7.29997 20.0757 15.8332 19.229 18.6833C19.1952 18.797 19.095 18.8723 18.974 18.8782C15.0536 19.0692 6.64305 19.2443 2.79587 18.4793M23 5.44519C22.9307 9.69324 22.5903 18.7644 21.78 21.7844C21.7479 21.9039 21.6378 21.9823 21.5113 21.9841M23 5.44519C22.7873 10.5701 22.1918 21.0527 21.5113 21.9841M23 5.44519C22.7164 10.7665 21.9792 21.5246 21.2986 21.9868M23 5.44519C22.6455 10.833 21.7665 21.6847 21.0859 21.9893M23 5.44519C22.5746 10.8344 21.5538 21.6886 20.8733 21.9915M23 5.44519C22.5038 10.8357 21.3411 21.692 20.6606 21.9934M23 5.44519C22.4271 10.8363 21.1342 21.6937 20.5456 21.9943M23 5.44519C22.9859 5.55369 22.9715 5.66436 22.9568 5.77707M23 5.44519C22.9552 5.752 22.9077 6.07618 22.8579 6.41482M23 5.44519C22.8438 6.39224 22.6596 7.50471 22.4613 8.69742M23 5.44519L21.2393 15.2332M23 5.44519C22.9904 5.53274 22.9759 5.64409 22.9568 5.77707M21.5113 21.9841L21.2986 21.9868M21.2986 21.9868L21.0859 21.9893M21.0859 21.9893L20.8733 21.9915M20.8733 21.9915L20.6606 21.9934M20.6606 21.9934L20.5456 21.9943M20.5456 21.9943L20.4479 21.995M20.4479 21.995C20.7814 21.8535 22.2318 11.3328 22.9568 5.77707M20.4479 21.995L20.3164 21.9959M22.9568 5.77707C22.9315 5.95335 22.8982 6.16763 22.8579 6.41482M20.3164 21.9959C20.5383 21.8603 22.0222 12.0994 22.8579 6.41482M20.3164 21.9959L20.1608 21.9969M22.8579 6.41482C22.7612 7.00903 22.6242 7.79342 22.4613 8.69742M20.1608 21.9969C20.2522 21.8788 21.5169 14.378 22.4613 8.69742M20.1608 21.9969L20.0226 21.9976M22.4613 8.69742C22.1235 10.5717 21.6739 12.96 21.2393 15.2332M20.0226 21.9976C15.3834 22.0204 7.96023 21.8888 5.56065 21.2028M20.0226 21.9976L20.0435 21.8813M5.56065 21.2028C9.54453 21.5903 18.0185 22.2685 20.0435 21.8813M5.56065 21.2028C15.2586 21.981 19.2788 21.8566 20.0766 21.6971M5.56065 21.2028C5.49851 21.1649 5.42638 21.1198 5.34797 21.0695M20.0435 21.8813L20.0766 21.6971M20.0766 21.6971L20.1109 21.5067M5.34797 21.0695C9.81878 21.4081 19.0305 21.9696 20.1109 21.5067M5.34797 21.0695C5.2809 21.0264 5.20923 20.9795 5.1353 20.9299M5.34797 21.0695C14.3654 21.741 18.9638 21.5482 20.1358 21.3679M20.1109 21.5067L20.1358 21.3679M5.1353 20.9299C16.3645 21.6454 19.8311 21.4276 20.1608 21.2292M5.1353 20.9299C15.0034 21.4898 19.2832 21.2562 20.1895 21.0695M5.1353 20.9299C5.06577 20.8833 4.99423 20.8344 4.92262 20.7842M20.1608 21.2292L20.1358 21.3679M20.1608 21.2292L20.1895 21.0695M20.1895 21.0695L20.2039 20.9896M20.1895 21.0695L6.4179 20.8252C6.35203 20.824 6.34231 20.9174 6.40708 20.9292C6.40992 20.9297 6.4128 20.93 6.41569 20.93L18.5338 21.2028M20.2183 20.9096L4.70995 20.6308M20.2183 20.9096L20.2433 20.7702M20.2183 20.9096L20.2039 20.9896M4.70995 20.6308C4.66877 20.6002 4.62825 20.5695 4.58876 20.5389M4.70995 20.6308L20.2433 20.7702M4.70995 20.6308C4.77963 20.6826 4.85116 20.734 4.92262 20.7842M4.58876 20.5389L20.2684 20.6308M4.58876 20.5389C4.53925 20.5005 4.49138 20.4623 4.44593 20.4247M21.2393 15.2332L20.2684 20.6308M21.2393 15.2332C20.8913 17.0536 20.5529 18.8001 20.289 20.1497M20.2684 20.6308L20.2433 20.7702M4.44593 20.4247L12.2013 20.4447M4.44593 20.4247C4.40693 20.3924 4.36971 20.3605 4.33477 20.3293M12.2013 20.4447C13.1851 20.4776 14.1677 20.5033 15.1104 20.518M12.2013 20.4447C11.227 20.4121 10.2516 20.3724 9.31234 20.3293M15.1104 20.518C16.384 20.5378 17.5847 20.5376 18.6174 20.5081M15.1104 20.518C11.0224 20.3907 5.88351 19.9169 5.01929 19.7345C3.87776 19.4937 3.91208 19.8349 4.07192 20.0356M15.1104 20.518C16.4568 20.5599 17.6893 20.5642 18.6174 20.5081M18.6174 20.5081C19.129 20.4935 19.5992 20.4717 20.0167 20.4416C20.1463 20.4323 20.2521 20.3386 20.2765 20.2139L20.289 20.1497M18.6174 20.5081C19.5241 20.4534 20.1404 20.341 20.289 20.1497M9.31234 20.3293H4.33477M9.31234 20.3293C8.07845 20.2726 6.90711 20.21 5.88334 20.1497M4.33477 20.3293C4.27118 20.2725 4.21514 20.2179 4.16964 20.1671M4.16964 20.1671C4.12698 20.1195 4.09359 20.0752 4.07192 20.0356M4.16964 20.1671L5.88334 20.1497M4.07192 20.0356C4.59497 20.071 5.20695 20.1099 5.88334 20.1497M4.92262 20.7842L20.2039 20.9896" stroke="black" stroke-linecap="round"/>
</svg>
