<svg width="256" height="256" viewBox="0 0 256 256" fill="none" xmlns="http://www.w3.org/2000/svg">
<rect width="256" height="256" rx="69" fill="#6366F1"/>
<path opacity="0.5" d="M185.304 117.369C172.893 117.369 173.66 141.653 167.804 152.651C166.821 154.479 164.138 154.245 163.492 152.269C156.842 131.781 159.878 82 141.843 82C122.963 82 127.629 146.419 120.28 172.671C119.737 174.664 116.994 174.837 116.192 172.913C108.43 154.185 109.301 113.33 94.6124 113.33C79.4151 113.33 80.7089 147.555 74.7576 161.343C73.9728 163.189 71.3766 163.25 70.5055 161.43C66.1671 152.339 64.7785 134 48.391 134H29.3039C26.932 134 25 135.941 25 138.325C25 140.708 26.932 142.667 29.3039 142.667H48.391C61.9495 142.667 57.3438 172.861 73.0067 172.861C87.5312 172.861 85.9615 140.015 92.1801 125.455C92.9391 123.652 95.4749 123.704 96.1994 125.507C103.143 143.247 103.013 186 118.978 186C136.892 186 130.51 117.915 140.049 93.9513C140.765 92.1227 143.361 92.0273 144.18 93.8473C153.055 113.347 148.381 164.273 164.397 164.273C178.534 164.273 179.379 140.821 183.631 129.277C184.33 127.439 186.848 127.309 187.719 129.043C192.17 137.718 195.016 151.333 208.419 151.333H227.696C230.068 151.333 232 149.392 232 147.009C232 144.617 230.068 142.675 227.696 142.675H208.419C197.008 142.675 198.785 117.369 185.304 117.369Z" fill="white"/>
<path d="M185.304 111.369C172.893 111.369 173.66 135.653 167.804 146.651C166.821 148.479 164.138 148.245 163.492 146.269C156.842 125.781 159.878 76 141.843 76C122.963 76 127.629 140.419 120.28 166.671C119.737 168.664 116.994 168.837 116.192 166.913C108.43 148.185 109.301 107.33 94.6124 107.33C79.4151 107.33 80.7089 141.555 74.7576 155.343C73.9728 157.189 71.3766 157.25 70.5055 155.43C66.1671 146.339 64.7785 128 48.391 128H29.3039C26.932 128 25 129.941 25 132.325C25 134.708 26.932 136.667 29.3039 136.667H48.391C61.9495 136.667 57.3438 166.861 73.0067 166.861C87.5312 166.861 85.9615 134.015 92.1801 119.455C92.9391 117.652 95.4749 117.704 96.1994 119.507C103.143 137.247 103.013 180 118.978 180C136.892 180 130.51 111.915 140.049 87.9513C140.765 86.1227 143.361 86.0273 144.18 87.8473C153.055 107.347 148.381 158.273 164.397 158.273C178.534 158.273 179.379 134.821 183.631 123.277C184.33 121.439 186.848 121.309 187.719 123.043C192.17 131.718 195.016 145.333 208.419 145.333H227.696C230.068 145.333 232 143.392 232 141.009C232 138.617 230.068 136.675 227.696 136.675H208.419C197.008 136.675 198.785 111.369 185.304 111.369Z" fill="white"/>
</svg>
