<svg width="40" height="40" viewBox="0 0 40 40" fill="none" xmlns="http://www.w3.org/2000/svg">
<path d="M24 9V0H7C5.3 0 4 1.3 4 3V37C4 38.7 5.3 40 7 40H33C34.7 40 36 38.7 36 37V12H27C25.3 12 24 10.7 24 9Z" fill="white"/>
<path d="M24 0V9C24 10.7 25.3 12 27 12H36L24 0Z" fill="#EAEAEA"/>
<g opacity="0.2">
<path d="M19.6 10H10V12H19.6V10Z" fill="#636363"/>
</g>
<g opacity="0.2">
<path d="M30 20H10V22H30V20Z" fill="#636363"/>
</g>
<g opacity="0.2">
<path d="M30 15H10V17H30V15Z" fill="#636363"/>
</g>
<g opacity="0.2">
<path d="M30 25H10V27H30V25Z" fill="#636363"/>
</g>
<g opacity="0.2">
<path d="M30 30H10V32H30V30Z" fill="#636363"/>
</g>
</svg>
