<svg width="40" height="28" viewBox="0 0 40 28" fill="none" xmlns="http://www.w3.org/2000/svg">
<g clip-path="url(#clip0_10_2)">
<path d="M40 24C40 26.2 38.2 28 36 28H4C1.8 28 0 26.2 0 24V4C0 1.8 1.8 0 4 0H36C38.2 0 40 1.8 40 4V24Z" fill="white"/>
<g opacity="0.2">
<path d="M23.5 12.2C21.6 10.1 18.4 10.1 16.5 12.2L1 25.2C0.8 25.4 0.7 25.6 0.5 25.8C1.2 27.1 2.5 28 3.9 28H35.9C37.4 28 38.6 27.1 39.3 25.8C39.2 25.6 39 25.4 38.8 25.2L23.5 12.2Z" fill="#231F20"/>
</g>
<path d="M23.5 14C21.6 12.1 18.4 12.1 16.5 14L1 25.5C0.8 25.7 0.7 25.8 0.5 26C1.2 27.2 2.5 27.9 3.9 27.9H35.9C37.4 27.9 38.6 27.1 39.3 26C39.2 25.8 39 25.7 38.8 25.5L23.5 14Z" fill="white"/>
<g opacity="0.2">
<path d="M0.600006 2.2C1.30001 0.900001 2.60001 0 4.00001 0H36C37.5 0 38.7 0.900001 39.4 2.2C39.3 2.4 39.1 2.6 38.9 2.8L23.5 15.8C21.6 17.9 18.4 17.9 16.5 15.8L0.600006 2.2Z" fill="#231F20"/>
</g>
<path d="M16.5 14C18.4 15.9 21.6 15.9 23.5 14L39 2.50001C39.2 2.30001 39.3 2.20001 39.5 2.00001C38.8 0.800006 37.5 0.100006 36.1 0.100006H4.00001C2.50001 0.100006 1.30001 0.900006 0.600006 2.00001C0.700006 2.20001 0.900006 2.30001 1.10001 2.50001L16.5 14Z" fill="#F2F2F2"/>
</g>
<defs>
<clipPath id="clip0_10_2">
<rect width="40" height="28" fill="white"/>
</clipPath>
</defs>
</svg>
