<svg width="500" height="500" viewBox="0 0 500 500" fill="none" xmlns="http://www.w3.org/2000/svg">
<g clip-path="url(#clip0_2703_78)">
<rect width="500" height="500" fill="#3A3E45"/>
<mask id="mask0_2703_78" style="mask-type:alpha" maskUnits="userSpaceOnUse" x="-128" y="-18" width="248" height="248">
<rect x="-127.191" y="-17.4082" width="247.182" height="247.182" fill="#DE6F8E"/>
</mask>
<g mask="url(#mask0_2703_78)">
</g>
<rect x="-120.48" y="-14.3574" width="755.95" height="529.498" rx="16.6509" fill="#3A3E45"/>
<path d="M49.6348 110.29C49.6348 93.2637 63.4376 79.4609 80.4642 79.4609H255.677V379.298H49.6348V110.29Z" fill="#1A07F2"/>
<path d="M49.6348 379.299H461.719V569.884C461.719 578.421 454.799 585.341 446.262 585.341H65.0915C56.555 585.341 49.6348 578.421 49.6348 569.884V379.299Z" fill="#686C73"/>
<path d="M255.677 79.4609H430.889C447.916 79.4609 461.719 93.2637 461.719 110.29V379.298H255.677V79.4609Z" fill="#4065F9"/>
<path d="M96.2773 467.213V451.293H91.8258V449.932C93.4745 449.85 94.6595 449.541 95.3808 449.005C96.1228 448.448 96.5865 447.418 96.7719 445.914H98.2867V467.213H96.2773ZM102.712 467.213L111.058 445.11H113.408L121.816 467.213H119.591L117.025 460.257H107.411L104.814 467.213H102.712ZM108.029 458.557H116.406L113.377 450.303L112.264 447.088H112.202C111.811 448.345 111.45 449.417 111.12 450.303L108.029 458.557ZM132.629 465.915C134.525 465.915 135.958 465.1 136.926 463.472C137.895 461.844 138.379 459.557 138.379 456.61C138.379 453.724 137.874 451.447 136.865 449.778C135.875 448.108 134.464 447.274 132.629 447.274C130.775 447.274 129.342 448.098 128.333 449.747C127.343 451.375 126.849 453.663 126.849 456.61C126.849 459.495 127.343 461.772 128.333 463.441C129.342 465.09 130.775 465.915 132.629 465.915ZM132.599 467.646C130.125 467.646 128.199 466.656 126.818 464.678C125.458 462.7 124.777 460.01 124.777 456.61C124.777 453.189 125.478 450.499 126.88 448.541C128.302 446.563 130.218 445.574 132.629 445.574C135.041 445.574 136.947 446.552 138.348 448.51C139.75 450.468 140.451 453.168 140.451 456.61C140.451 460.031 139.76 462.73 138.379 464.709C137.019 466.667 135.092 467.646 132.599 467.646ZM146.192 467.213C146.481 463.565 147.408 459.979 148.974 456.455C150.561 452.91 152.478 450.056 154.724 447.892V447.83H142.946V446.037H156.795V447.768C154.57 449.932 152.684 452.725 151.138 456.146C149.593 459.546 148.665 463.235 148.356 467.213H146.192ZM160.884 467.213V445.11H175.29V446.934H162.955V454.786H173.466V456.579H162.955V467.213H160.884ZM178.618 467.213C178.639 466.45 178.731 465.729 178.896 465.049C179.061 464.369 179.246 463.792 179.453 463.318C179.659 462.823 179.988 462.318 180.442 461.803C180.895 461.267 181.256 460.865 181.524 460.597C181.792 460.309 182.245 459.938 182.884 459.485C183.543 459.031 183.997 458.732 184.244 458.588C184.512 458.423 185.007 458.124 185.728 457.692C187.521 456.62 188.675 455.826 189.19 455.311C190.118 454.384 190.581 453.219 190.581 451.818C190.581 450.417 190.169 449.314 189.345 448.51C188.52 447.707 187.408 447.305 186.006 447.305C184.502 447.305 183.327 447.758 182.482 448.665C181.616 449.613 181.173 451.004 181.153 452.838H179.113C179.113 450.551 179.741 448.778 180.998 447.521C182.276 446.243 183.987 445.604 186.13 445.604C188.088 445.604 189.654 446.192 190.829 447.367C192.024 448.521 192.622 449.984 192.622 451.756C192.622 452.704 192.488 453.539 192.22 454.26C191.972 454.982 191.519 455.651 190.86 456.27C190.221 456.867 189.675 457.321 189.221 457.63C188.788 457.939 188.077 458.382 187.088 458.959C186.985 459.021 186.913 459.072 186.872 459.114C186.831 459.134 186.769 459.165 186.686 459.206C186.604 459.248 186.532 459.289 186.47 459.33C185.666 459.804 185.038 460.196 184.584 460.505C184.131 460.814 183.595 461.226 182.977 461.741C182.379 462.256 181.905 462.813 181.555 463.411C181.225 464.008 181.009 464.657 180.905 465.358H192.343V467.213H178.618Z" fill="white"/>
<path d="M317.835 467.213V461.803H307.943V459.948L318.114 445.821H319.783V460.134H323.06V461.803H319.783V467.213H317.835ZM309.952 460.134H317.835V449.19H317.774L309.952 460.041V460.134ZM334.377 465.915C336.273 465.915 337.706 465.1 338.674 463.472C339.643 461.844 340.127 459.557 340.127 456.61C340.127 453.724 339.622 451.447 338.613 449.778C337.623 448.108 336.212 447.274 334.377 447.274C332.523 447.274 331.09 448.098 330.08 449.747C329.091 451.375 328.597 453.663 328.597 456.61C328.597 459.495 329.091 461.772 330.08 463.441C331.09 465.09 332.523 465.915 334.377 465.915ZM334.346 467.646C331.873 467.646 329.946 466.656 328.566 464.678C327.205 462.7 326.525 460.01 326.525 456.61C326.525 453.189 327.226 450.499 328.627 448.541C330.05 446.563 331.966 445.574 334.377 445.574C336.789 445.574 338.695 446.552 340.096 448.51C341.498 450.468 342.198 453.168 342.198 456.61C342.198 460.031 341.508 462.73 340.127 464.709C338.767 466.667 336.84 467.646 334.346 467.646ZM353.853 467.646C351.895 467.646 350.257 467.048 348.938 465.853C347.042 464.142 346.094 461.02 346.094 456.486C346.094 453.23 346.774 450.602 348.134 448.603C349.515 446.583 351.462 445.574 353.977 445.574C355.749 445.574 357.161 446.089 358.212 447.119C359.263 448.15 359.881 449.469 360.067 451.076H358.057C357.954 449.963 357.542 449.056 356.821 448.356C356.099 447.655 355.162 447.305 354.008 447.305C352.009 447.305 350.514 448.17 349.525 449.901C348.536 451.612 348.052 453.982 348.072 457.011H348.134C349.453 454.724 351.38 453.58 353.915 453.58C355.852 453.58 357.449 454.24 358.706 455.559C359.984 456.857 360.623 458.495 360.623 460.474C360.644 462.493 360.015 464.194 358.737 465.574C357.46 466.955 355.831 467.646 353.853 467.646ZM353.791 465.976C355.234 465.976 356.409 465.471 357.315 464.462C358.222 463.431 358.676 462.122 358.676 460.536C358.676 458.969 358.222 457.702 357.315 456.733C356.409 455.744 355.234 455.249 353.791 455.249C352.287 455.249 351.04 455.754 350.051 456.764C349.082 457.753 348.598 459.031 348.598 460.597C348.598 462.205 349.072 463.503 350.02 464.493C350.988 465.482 352.246 465.976 353.791 465.976ZM371.07 467.646C369.071 467.646 367.412 467.079 366.093 465.945C364.795 464.791 364.125 463.308 364.084 461.494H366.062C366.433 464.379 368.092 465.822 371.039 465.822C372.585 465.822 373.801 465.327 374.687 464.338C375.594 463.328 376.047 462.009 376.047 460.381C376.047 458.774 375.594 457.496 374.687 456.548C373.78 455.6 372.605 455.126 371.163 455.126C369.061 455.126 367.515 455.847 366.526 457.29H364.609L366.495 446.037H377.036V447.83H367.948L366.773 455.064H366.835C368.071 453.93 369.627 453.364 371.503 453.364C373.337 453.364 374.893 453.992 376.171 455.249C377.449 456.507 378.087 458.238 378.087 460.443C378.087 462.586 377.438 464.328 376.14 465.667C374.862 466.986 373.172 467.646 371.07 467.646ZM382.623 467.213V445.11H397.029V446.934H384.694V454.786H395.205V456.579H384.694V467.213H382.623ZM407.281 467.646C405.427 467.646 403.912 467.141 402.737 466.131C401.562 465.1 400.924 463.73 400.821 462.019H402.861C402.964 463.215 403.397 464.163 404.159 464.863C404.942 465.564 405.962 465.915 407.22 465.915C408.786 465.915 410.002 465.451 410.867 464.523C412.289 463.06 413.021 460.33 413.062 456.331H413C411.743 458.537 409.816 459.639 407.22 459.639C405.282 459.639 403.675 458.99 402.397 457.692C401.119 456.373 400.48 454.724 400.48 452.745C400.46 450.726 401.109 449.026 402.428 447.645C403.747 446.264 405.406 445.574 407.405 445.574C409.239 445.574 410.816 446.13 412.135 447.243C413.186 448.108 413.928 449.314 414.361 450.86C414.793 452.385 415.01 454.343 415.01 456.733C415.01 460.937 414.082 463.957 412.228 465.791C410.95 467.027 409.301 467.646 407.281 467.646ZM407.374 457.97C408.899 457.97 410.146 457.475 411.115 456.486C412.083 455.497 412.568 454.219 412.568 452.653C412.568 451.045 412.083 449.747 411.115 448.758C410.167 447.748 408.94 447.243 407.436 447.243C405.952 447.243 404.747 447.758 403.819 448.789C402.892 449.798 402.428 451.097 402.428 452.684C402.428 454.25 402.881 455.528 403.788 456.517C404.716 457.485 405.911 457.97 407.374 457.97Z" fill="white"/>
<path d="M92.1349 425.996V403.893H103.109C105.52 403.893 107.509 404.46 109.075 405.593C110.662 406.706 111.456 408.334 111.456 410.478C111.456 412.971 110.25 414.764 107.839 415.857V415.949C109.508 416.588 110.539 417.804 110.93 419.597C111.095 420.298 111.198 421.174 111.239 422.225C111.281 423.255 111.332 424.069 111.394 424.667C111.456 425.264 111.6 425.594 111.827 425.656V425.996H105.459C105.273 425.872 105.149 425.543 105.088 425.007C105.026 424.45 104.964 423.75 104.902 422.905C104.84 422.06 104.748 421.38 104.624 420.864C104.418 419.978 104.088 419.329 103.635 418.917C103.181 418.505 102.501 418.299 101.594 418.299H98.5958V425.996H92.1349ZM98.5958 408.963V413.693H102.058C103.975 413.693 104.933 412.909 104.933 411.343C104.933 410.601 104.696 410.024 104.222 409.612C103.748 409.179 103.058 408.963 102.151 408.963H98.5958ZM127.33 424.141C125.764 425.708 123.683 426.491 121.086 426.491C118.489 426.491 116.397 425.708 114.811 424.141C113.224 422.575 112.43 420.576 112.43 418.144C112.43 415.712 113.224 413.713 114.811 412.147C116.397 410.56 118.489 409.767 121.086 409.767C123.683 409.767 125.764 410.56 127.33 412.147C128.897 413.713 129.68 415.712 129.68 418.144C129.68 420.576 128.897 422.575 127.33 424.141ZM121.024 422.596C121.91 422.596 122.58 422.194 123.034 421.39C123.508 420.586 123.745 419.504 123.745 418.144C123.745 416.784 123.508 415.702 123.034 414.898C122.58 414.094 121.91 413.693 121.024 413.693C120.159 413.693 119.499 414.094 119.046 414.898C118.592 415.681 118.366 416.763 118.366 418.144C118.366 419.525 118.592 420.617 119.046 421.421C119.499 422.204 120.159 422.596 121.024 422.596ZM131.24 431.22V426.707H133.187C133.826 426.707 134.29 426.614 134.578 426.429C134.867 426.243 135.011 425.945 135.011 425.532C135.011 425.203 134.774 424.45 134.3 423.276L129.261 410.23H135.413L137.36 416.568C137.505 417.042 137.649 417.598 137.793 418.237C137.958 418.876 138.082 419.401 138.164 419.813L138.288 420.401H138.35C138.659 418.917 138.978 417.639 139.308 416.568L141.225 410.23H147.036L141.657 425.996C140.998 427.913 140.174 429.263 139.184 430.046C138.216 430.829 136.917 431.22 135.289 431.22H131.24ZM157.145 425.996C156.898 425.584 156.723 425.007 156.62 424.265H156.558C155.528 425.687 153.941 426.398 151.797 426.398C150.231 426.398 148.964 425.986 147.995 425.161C147.026 424.337 146.542 423.173 146.542 421.668C146.542 420.061 147.057 418.907 148.088 418.206C149.118 417.485 150.509 417.021 152.261 416.815C153.91 416.629 155.023 416.413 155.6 416.166C156.197 415.918 156.496 415.547 156.496 415.053C156.496 414.043 155.94 413.538 154.827 413.538C153.611 413.538 152.921 414.167 152.756 415.424H147.222C147.284 413.775 147.954 412.415 149.232 411.343C150.509 410.272 152.333 409.736 154.703 409.736C157.011 409.736 158.732 410.086 159.866 410.787C161.494 411.797 162.308 413.373 162.308 415.516V423.399C162.308 424.718 162.504 425.501 162.895 425.749V425.996H157.145ZM153.992 422.936C154.734 422.936 155.363 422.719 155.878 422.286C156.393 421.833 156.651 421.163 156.651 420.277V418.886C156.053 419.175 155.301 419.422 154.394 419.628C153.57 419.813 152.993 420.04 152.663 420.308C152.333 420.576 152.168 420.947 152.168 421.421C152.168 421.916 152.344 422.297 152.694 422.565C153.044 422.812 153.477 422.936 153.992 422.936ZM164.521 425.996V403.893H170.518V425.996H164.521ZM177.509 425.996V403.893H188.947C191.008 403.893 192.656 404.367 193.893 405.315C195.294 406.387 195.995 407.84 195.995 409.674C195.995 411.694 195.078 413.105 193.244 413.909V414.002C194.439 414.393 195.366 415.063 196.026 416.011C196.706 416.959 197.046 418.062 197.046 419.319C197.046 421.648 196.201 423.41 194.511 424.605C193.172 425.532 191.389 425.996 189.163 425.996H177.509ZM183.846 420.926H188.452C189.153 420.926 189.72 420.731 190.152 420.339C190.585 419.947 190.802 419.422 190.802 418.762C190.802 418.082 190.575 417.557 190.122 417.186C189.689 416.815 189.122 416.629 188.421 416.629H183.846V420.926ZM183.846 412.487H187.865C188.504 412.487 189.009 412.343 189.38 412.054C189.751 411.745 189.936 411.302 189.936 410.725C189.936 410.168 189.74 409.725 189.349 409.396C188.957 409.066 188.452 408.901 187.834 408.901H183.846V412.487ZM198.393 425.996V403.893H204.39V425.996H198.393ZM222.559 425.996H216.994V423.956H216.901C215.665 425.646 214.026 426.491 211.986 426.491C210.152 426.491 208.751 425.945 207.782 424.852C206.834 423.76 206.36 422.276 206.36 420.401V410.23H212.203V419.01C212.203 420.679 212.903 421.514 214.305 421.514C215.067 421.514 215.655 421.266 216.067 420.772C216.5 420.277 216.716 419.597 216.716 418.731V410.23H222.559V425.996ZM232.633 426.429C230.077 426.429 227.996 425.646 226.388 424.079C224.802 422.513 224.008 420.514 224.008 418.082C224.008 415.671 224.791 413.672 226.358 412.085C227.924 410.498 229.943 409.705 232.417 409.705C234.745 409.705 236.683 410.416 238.228 411.838C240.124 413.59 241.041 416.155 240.98 419.535H229.727C230.098 421.493 231.128 422.472 232.818 422.472C233.849 422.472 234.58 422.08 235.013 421.297H240.67C240.32 422.781 239.321 424.049 237.672 425.1C236.291 425.986 234.611 426.429 232.633 426.429ZM232.54 413.631C230.995 413.631 230.057 414.568 229.727 416.444H235.168C235.044 415.558 234.745 414.867 234.271 414.373C233.818 413.878 233.241 413.631 232.54 413.631Z" fill="#F1F1F1"/>
</g>
<defs>
<clipPath id="clip0_2703_78">
<rect width="500" height="500" fill="white"/>
</clipPath>
</defs>
</svg>
