<svg width="500" height="500" viewBox="0 0 500 500" fill="none" xmlns="http://www.w3.org/2000/svg">
<rect width="500" height="500" fill="#010101"/>
<g clip-path="url(#clip0_2703_5)">
<path d="M257.667 79.8457H241.346V417.372H257.667V79.8457Z" fill="#F5F5F5"/>
<path d="M257.667 79.8457H241.346V417.372H257.667V79.8457Z" fill="#F5F5F5"/>
<path d="M418.269 240.447H80.7422V256.769H418.269V240.447Z" fill="#F5F5F5"/>
<path d="M418.269 240.447H80.7422V256.769H418.269V240.447Z" fill="#F5F5F5"/>
<path d="M135.914 123.494L124.373 135.035L363.039 373.7L374.579 362.158L135.914 123.494Z" fill="#F5F5F5"/>
<path d="M135.914 123.494L124.373 135.035L363.039 373.7L374.579 362.158L135.914 123.494Z" fill="#F5F5F5"/>
<path d="M363.039 123.49L124.373 362.155L135.914 373.695L374.579 135.031L363.039 123.49Z" fill="#F5F5F5"/>
<path d="M363.039 123.49L124.373 362.155L135.914 373.695L374.579 135.031L363.039 123.49Z" fill="#F5F5F5"/>
<path d="M96.3417 177.432L90.1836 192.547L402.767 319.897L408.925 304.78L96.3417 177.432Z" fill="#F5F5F5"/>
<path d="M96.3417 177.432L90.1836 192.547L402.767 319.897L408.925 304.78L96.3417 177.432Z" fill="#F5F5F5"/>
<path d="M305.675 89.3086L178.326 401.891L193.441 408.049L320.79 95.4667L305.675 89.3086Z" fill="#F5F5F5"/>
<path d="M305.675 89.3086L178.326 401.891L193.441 408.049L320.79 95.4667L305.675 89.3086Z" fill="#F5F5F5"/>
<path d="M403.137 177.998L90.0137 304.03L96.1081 319.172L409.231 193.139L403.137 177.998Z" fill="#F5F5F5"/>
<path d="M403.137 177.998L90.0137 304.03L96.1081 319.172L409.231 193.139L403.137 177.998Z" fill="#F5F5F5"/>
<path d="M193.968 89.123L178.826 95.2158L304.825 408.339L319.965 402.247L193.968 89.123Z" fill="#F5F5F5"/>
<path d="M193.968 89.123L178.826 95.2158L304.825 408.339L319.965 402.247L193.968 89.123Z" fill="#F5F5F5"/>
</g>
<defs>
<clipPath id="clip0_2703_5">
<rect width="337.526" height="339.823" fill="white" transform="translate(80.7422 79.5059)"/>
</clipPath>
</defs>
</svg>
