<svg width="500" height="500" viewBox="0 0 500 500" fill="none" xmlns="http://www.w3.org/2000/svg">
<g clip-path="url(#clip0_2703_106)">
<rect width="500" height="500" fill="#EAE8E7"/>
<rect width="500" height="500" fill="#191919"/>
<mask id="mask0_2703_106" style="mask-type:alpha" maskUnits="userSpaceOnUse" x="0" y="0" width="500" height="500">
<rect width="500" height="500" rx="115.385" fill="white"/>
</mask>
<g mask="url(#mask0_2703_106)">
<g clip-path="url(#clip1_2703_106)">
<path d="M108.395 325.205H392.977C394.438 322.587 395.753 319.823 397.068 317.059H104.304C105.619 319.823 106.934 322.587 108.395 325.205ZM174.427 391.247H326.798C328.99 390.083 331.327 388.774 333.519 387.465H167.853C170.045 388.774 172.236 390.083 174.427 391.247ZM131.915 358.226H369.603C371.356 356.335 373.109 354.298 374.862 352.262H126.656C128.409 354.298 130.016 356.335 131.915 358.226ZM250.686 89.6953C181.878 89.6953 123.15 132.608 100.068 193.122H401.304C378.222 132.608 319.494 89.6953 250.686 89.6953ZM149.592 374.809H351.926C353.825 373.209 355.87 371.609 357.769 369.863H143.748C145.648 371.609 147.547 373.209 149.592 374.809ZM411.676 246.653H89.6953C89.6953 247.817 89.6953 248.835 89.6953 249.999C89.6953 253.054 89.8414 256.109 89.9875 259.164H411.53C411.676 256.109 411.823 253.054 411.823 249.999C411.676 248.835 411.676 247.817 411.676 246.653ZM118.621 341.788H382.897C384.504 339.461 386.111 337.133 387.572 334.661H113.946C115.407 337.133 117.014 339.461 118.621 341.788ZM100.798 308.768H400.574C401.742 305.713 402.911 302.658 403.934 299.458H97.4381C98.4607 302.512 99.6294 305.713 100.798 308.768ZM250.686 410.303C264.857 410.303 278.589 408.412 291.591 405.066H209.781C222.783 408.557 236.515 410.303 250.686 410.303ZM407.002 211.451H94.3702C93.2015 216.251 92.1788 221.197 91.4484 226.143H409.923C409.193 221.051 408.17 216.251 407.002 211.451ZM401.596 193.849H99.7755C97.8763 198.941 96.1232 204.323 94.8084 209.56H406.563C405.102 204.177 403.495 198.941 401.596 193.849ZM410.362 229.052H91.0101C90.4258 233.561 89.9875 238.071 89.8414 242.58H411.53C411.384 238.071 410.946 233.561 410.362 229.052ZM95.2467 292.184H406.125C407.002 288.839 407.878 285.347 408.609 281.856H92.7632C93.4936 285.347 94.3702 288.839 95.2467 292.184ZM91.7406 275.601H409.777C410.362 271.819 410.8 268.037 411.238 264.255H90.2797C90.5718 268.037 91.1562 271.965 91.7406 275.601Z" fill="url(#paint0_linear_2703_106)"/>
</g>
<g clip-path="url(#clip2_2703_106)">
<path d="M108.554 325.13H393.101C394.561 322.515 395.876 319.754 397.191 316.992H104.464C105.778 319.754 107.093 322.515 108.554 325.13ZM174.578 391.106H326.93C329.121 389.944 331.458 388.636 333.65 387.328H168.005C170.196 388.636 172.387 389.944 174.578 391.106ZM132.071 358.118H369.729C371.482 356.229 373.235 354.195 374.988 352.16H126.812C128.565 354.195 130.172 356.229 132.071 358.118ZM250.827 89.8555C182.027 89.8555 123.307 132.725 100.227 193.179H401.427C378.347 132.725 319.627 89.8555 250.827 89.8555ZM149.746 374.685H352.054C353.953 373.086 355.998 371.488 357.897 369.744H143.903C145.802 371.488 147.701 373.086 149.746 374.685ZM411.798 246.657H89.8564C89.8564 247.82 89.8564 248.837 89.8564 249.999C89.8564 253.051 90.0025 256.103 90.1486 259.155H411.652C411.798 256.103 411.944 253.051 411.944 249.999C411.798 248.837 411.798 247.82 411.798 246.657ZM118.779 341.697H383.022C384.628 339.372 386.235 337.047 387.696 334.576H114.104C115.565 337.047 117.172 339.372 118.779 341.697ZM100.958 308.709H400.696C401.865 305.657 403.033 302.606 404.056 299.409H97.5982C98.6207 302.46 99.7893 305.657 100.958 308.709ZM250.827 410.143C264.996 410.143 278.727 408.254 291.727 404.912H209.927C222.927 408.399 236.658 410.143 250.827 410.143ZM407.123 211.489H94.5307C93.3622 216.285 92.3397 221.226 91.6093 226.167H410.045C409.314 221.08 408.292 216.285 407.123 211.489ZM401.719 193.905H99.9354C98.0364 198.992 96.2836 204.369 94.9689 209.6H406.685C405.224 204.223 403.618 198.992 401.719 193.905ZM410.483 229.073H91.1711C90.5868 233.578 90.1486 238.083 90.0025 242.588H411.652C411.506 238.083 411.067 233.578 410.483 229.073ZM95.4072 292.143H406.247C407.123 288.8 408 285.312 408.73 281.825H92.9239C93.6543 285.312 94.5307 288.8 95.4072 292.143ZM91.9014 275.576H409.899C410.483 271.798 410.921 268.019 411.359 264.241H90.4407C90.7329 268.019 91.3171 271.943 91.9014 275.576Z" fill="url(#paint1_linear_2703_106)"/>
</g>
</g>
</g>
<defs>
<linearGradient id="paint0_linear_2703_106" x1="250.686" y1="92.9066" x2="250.686" y2="413.974" gradientUnits="userSpaceOnUse">
<stop stop-color="white"/>
<stop offset="0.191575" stop-color="#CFCFCF"/>
<stop offset="0.453125" stop-color="#5F5F5F"/>
<stop offset="0.822917" stop-color="#191919"/>
</linearGradient>
<linearGradient id="paint1_linear_2703_106" x1="339.069" y1="80.8586" x2="338.46" y2="349.683" gradientUnits="userSpaceOnUse">
<stop stop-color="white"/>
<stop offset="0.145833" stop-color="#FFBB88"/>
<stop offset="0.286458" stop-color="#FF7CBA"/>
<stop offset="0.520396" stop-color="#887BFF"/>
<stop offset="0.769108" stop-color="#03C7F6"/>
<stop offset="0.880508" stop-color="#278CA4" stop-opacity="0.26"/>
<stop offset="1" stop-color="#4D4D4D" stop-opacity="0"/>
</linearGradient>
<clipPath id="clip0_2703_106">
<rect width="500" height="500" fill="white"/>
</clipPath>
<clipPath id="clip1_2703_106">
<rect width="322.127" height="320.608" fill="white" transform="translate(89.6953 89.6953)"/>
</clipPath>
<clipPath id="clip2_2703_106">
<rect width="161.943" height="320.288" fill="white" transform="translate(89.8564 89.8555)"/>
</clipPath>
</defs>
</svg>
