<svg width="3939" height="3939" viewBox="0 0 3939 3939" fill="none" xmlns="http://www.w3.org/2000/svg">
<rect width="3938.57" height="3938.57" fill="#0D5CD5"/>
<path d="M2807.9 2076.37V2502.05L2529.09 2341.15V2237.28L2336.89 2126.39L2247.07 2074.46V1752.64L2335.19 1803.51L2615.71 1965.48L2807.9 2076.37Z" stroke="white" stroke-width="63.28" stroke-linecap="round" stroke-linejoin="round"/>
<path d="M1687.94 1751.58V2075.31L1599.61 2126.39L1411.04 2235.15V2337.1L1130.72 2499.07V2073.39L1319.3 1964.42L1597.91 1803.51L1687.94 1751.58Z" stroke="white" stroke-width="63.28" stroke-linecap="round" stroke-linejoin="round"/>
<path d="M3365.12 1754.56L2996.48 1967.4L2807.9 2076.37L2615.71 1965.48L2335.19 1803.51L2247.07 1752.64L2435.86 1643.67L2523.98 1592.8L2804.28 1430.83L3365.12 1754.56Z" stroke="white" stroke-width="63.28" stroke-linecap="round" stroke-linejoin="round"/>
<path d="M2523.99 1268.86L2155.35 1481.7L1966.56 1590.67L1774.37 1479.78L1405.73 1266.94L1963.16 945.127L2523.99 1268.86Z" stroke="white" stroke-width="63.28" stroke-linecap="round" stroke-linejoin="round"/>
<path d="M1687.95 1751.58L1597.92 1803.51L1319.31 1964.42L1130.73 2073.39L938.54 1962.29L569.898 1749.45L1127.11 1427.85L1405.72 1588.76L1495.75 1640.69L1687.95 1751.58Z" stroke="white" stroke-width="63.28" stroke-linecap="round" stroke-linejoin="round"/>
<path d="M3365.12 1754.56V2180.24L2807.9 2502.05V2076.37L2996.48 1967.4L3365.12 1754.56Z" stroke="white" stroke-width="63.28" stroke-linecap="round" stroke-linejoin="round"/>
<path d="M2529.1 2237.28V2662.96L1971.88 2984.77V2559.09L2160.46 2450.12L2439.28 2289.21L2529.1 2237.28Z" stroke="white" stroke-width="63.28" stroke-linecap="round" stroke-linejoin="round"/>
<path d="M2529.1 2237.28L2439.29 2289.21L2160.46 2450.12L1971.88 2559.09L1779.69 2447.99L1499.38 2286.23L1411.05 2235.15L1599.63 2126.39L1687.96 2075.31L1878.45 1965.48L1966.56 1914.61L1968.27 1913.55L2056.39 1964.42L2247.09 2074.46L2336.91 2126.39L2529.1 2237.28Z" stroke="white" stroke-width="63.28" stroke-linecap="round" stroke-linejoin="round"/>
<path d="M1971.88 2559.09V2984.77L1411.05 2660.83V2235.15L1499.38 2286.23L1779.69 2447.99L1971.88 2559.09Z" stroke="white" stroke-width="63.28" stroke-linecap="round" stroke-linejoin="round"/>
<path d="M1130.73 2073.39V2499.07L569.898 2175.13V1749.45L938.54 1962.29L1130.73 2073.39Z" stroke="white" stroke-width="63.28" stroke-linecap="round" stroke-linejoin="round"/>
<path d="M2523.99 1268.86V1592.8L2435.87 1643.67L2247.09 1752.64V1854.38L2056.38 1964.42L1968.26 1913.55L1966.56 1914.61V1590.67L2155.35 1481.7L2523.99 1268.86Z" stroke="white" stroke-width="63.28" stroke-linecap="round" stroke-linejoin="round"/>
<path d="M1966.56 1590.67V1914.61L1878.45 1965.48L1687.95 1855.44V1751.58L1495.76 1640.69L1405.73 1588.75V1266.94L1774.37 1479.78L1966.56 1590.67Z" stroke="white" stroke-width="63.28" stroke-linecap="round" stroke-linejoin="round"/>
</svg>
