<svg width="3939" height="3939" viewBox="0 0 3939 3939" fill="none" xmlns="http://www.w3.org/2000/svg">
<rect width="3938.57" height="3938.57" fill="#EFEFEF"/>
<circle cx="2097.05" cy="1856.61" r="64.0265" fill="#0000FF"/>
<circle cx="1853.75" cy="1856.61" r="64.0265" fill="#0000FF"/>
<circle cx="1751.31" cy="1664.53" r="64.0265" fill="#0000FF"/>
<circle cx="1969" cy="1600.51" r="64.0265" fill="#0000FF"/>
<circle cx="2212.3" cy="1664.53" r="64.0265" fill="#0000FF"/>
<circle cx="2378.77" cy="1498.07" r="64.0265" fill="#0000FF"/>
<circle cx="2634.88" cy="1395.62" r="64.0265" fill="#0000FF"/>
<circle cx="2788.54" cy="1241.96" r="64.0265" fill="#0000FF"/>
<circle cx="3044.64" cy="1165.13" r="64.0265" fill="#0000FF"/>
<circle cx="2865.37" cy="998.659" r="64.0265" fill="#0000FF"/>
<circle cx="2622.07" cy="1101.1" r="64.0265" fill="#0000FF"/>
<circle cx="2673.29" cy="857.8" r="64.0265" fill="#0000FF"/>
<circle cx="2429.99" cy="1254.77" r="64.0265" fill="#0000FF"/>
<circle cx="2199.5" cy="1395.62" r="64.0265" fill="#0000FF"/>
<circle cx="2212.3" cy="1165.13" r="64.0265" fill="#0000FF"/>
<circle cx="2212.3" cy="921.828" r="64.0265" fill="#0000FF"/>
<circle cx="2417.19" cy="985.853" r="64.0265" fill="#0000FF"/>
<circle cx="2455.6" cy="755.358" r="64.0265" fill="#0000FF"/>
<circle cx="2225.11" cy="691.333" r="64.0265" fill="#0000FF"/>
<circle cx="1969" cy="678.526" r="64.0265" fill="#0000FF"/>
<circle cx="1738.51" cy="691.333" r="64.0265" fill="#0000FF"/>
<circle cx="1508.01" cy="755.358" r="64.0265" fill="#0000FF"/>
<circle cx="1290.32" cy="857.8" r="64.0265" fill="#0000FF"/>
<circle cx="1098.24" cy="998.659" r="64.0265" fill="#0000FF"/>
<circle cx="918.965" cy="1165.13" r="64.0265" fill="#0000FF"/>
<circle cx="778.106" cy="1370.01" r="64.0265" fill="#0000FF"/>
<circle cx="675.664" cy="1587.7" r="64.0265" fill="#0000FF"/>
<circle cx="906.16" cy="1613.32" r="64.0265" fill="#0000FF"/>
<circle cx="1021.41" cy="1421.23" r="64.0265" fill="#0000FF"/>
<circle cx="1162.26" cy="1241.96" r="64.0265" fill="#0000FF"/>
<circle cx="1341.54" cy="1101.1" r="64.0265" fill="#0000FF"/>
<circle cx="1546.42" cy="985.853" r="64.0265" fill="#0000FF"/>
<circle cx="1751.31" cy="921.828" r="64.0265" fill="#0000FF"/>
<circle cx="1969" cy="909.021" r="64.0265" fill="#0000FF"/>
<circle cx="1969" cy="1139.52" r="64.0265" fill="#0000FF"/>
<circle cx="1969" cy="1370.01" r="64.0265" fill="#0000FF"/>
<circle cx="1764.12" cy="1395.62" r="64.0265" fill="#0000FF"/>
<circle cx="1572.04" cy="1498.07" r="64.0265" fill="#0000FF"/>
<circle cx="1418.37" cy="1651.73" r="64.0265" fill="#0000FF"/>
<circle cx="1175.07" cy="1600.51" r="64.0265" fill="#0000FF"/>
<circle cx="1315.93" cy="1408.43" r="64.0265" fill="#0000FF"/>
<circle cx="1508.01" cy="1254.77" r="64.0265" fill="#0000FF"/>
<circle cx="1738.51" cy="1165.13" r="64.0265" fill="#0000FF"/>
<circle cx="1853.75" cy="2266.39" r="64.0265" fill="#0000FF"/>
<circle cx="1751.31" cy="2458.46" r="64.0265" fill="#0000FF"/>
<circle cx="1572.04" cy="2624.93" r="64.0265" fill="#0000FF"/>
<circle cx="1328.73" cy="2714.57" r="64.0265" fill="#0000FF"/>
<circle cx="1162.26" cy="2881.04" r="64.0265" fill="#0000FF"/>
<circle cx="1085.43" cy="3124.34" r="64.0265" fill="#0000FF"/>
<circle cx="918.965" cy="2945.07" r="64.0265" fill="#0000FF"/>
<circle cx="1021.41" cy="2701.77" r="64.0265" fill="#0000FF"/>
<circle cx="1175.07" cy="2522.49" r="64.0265" fill="#0000FF"/>
<circle cx="1418.37" cy="2458.46" r="64.0265" fill="#0000FF"/>
<circle cx="1584.84" cy="2291.99" r="64.0265" fill="#0000FF"/>
<circle cx="1315.93" cy="2266.39" r="64.0265" fill="#0000FF"/>
<circle cx="1085.43" cy="2304.8" r="64.0265" fill="#0000FF"/>
<circle cx="842.133" cy="2279.19" r="64.0265" fill="#0000FF"/>
<circle cx="611.637" cy="2291.99" r="64.0265" fill="#0000FF"/>
<circle cx="675.664" cy="2535.3" r="64.0265" fill="#0000FF"/>
<circle cx="906.16" cy="2496.88" r="64.0265" fill="#0000FF"/>
<circle cx="778.106" cy="2752.99" r="64.0265" fill="#0000FF"/>
<circle cx="2097.05" cy="2266.39" r="64.0265" fill="#0000FF"/>
<circle cx="2199.5" cy="2061.5" r="64.0265" fill="#0000FF"/>
<circle cx="2378.77" cy="1831" r="64.0265" fill="#0000FF"/>
<circle cx="2545.24" cy="1651.73" r="64.0265" fill="#0000FF"/>
<circle cx="2775.73" cy="1600.51" r="64.0265" fill="#0000FF"/>
<circle cx="2942.2" cy="1421.23" r="64.0265" fill="#0000FF"/>
<circle cx="3044.64" cy="1626.12" r="64.0265" fill="#0000FF"/>
<circle cx="2865.37" cy="1818.2" r="64.0265" fill="#0000FF"/>
<circle cx="3108.67" cy="1831" r="64.0265" fill="#0000FF"/>
<circle cx="3339.17" cy="1818.2" r="64.0265" fill="#0000FF"/>
<circle cx="3275.14" cy="1587.7" r="64.0265" fill="#0000FF"/>
<circle cx="2634.88" cy="1843.81" r="64.0265" fill="#0000FF"/>
<circle cx="3172.7" cy="1370.01" r="64.0265" fill="#0000FF"/>
<circle cx="2429.99" cy="2061.5" r="64.0265" fill="#0000FF"/>
<circle cx="2378.77" cy="2291.99" r="64.0265" fill="#0000FF"/>
<circle cx="2212.3" cy="2458.46" r="64.0265" fill="#0000FF"/>
<circle cx="1969" cy="2522.49" r="64.0265" fill="#0000FF"/>
<circle cx="1969" cy="2752.99" r="64.0265" fill="#0000FF"/>
<circle cx="1764.12" cy="2714.57" r="64.0265" fill="#0000FF"/>
<circle cx="1751.31" cy="2957.87" r="64.0265" fill="#0000FF"/>
<circle cx="1751.31" cy="3188.37" r="64.0265" fill="#0000FF"/>
<circle cx="1738.51" cy="3418.86" r="64.0265" fill="#0000FF"/>
<circle cx="1969" cy="3444.47" r="64.0265" fill="#0000FF"/>
<circle cx="1969" cy="3226.78" r="64.0265" fill="#0000FF"/>
<circle cx="1969" cy="2983.48" r="64.0265" fill="#0000FF"/>
<circle cx="2186.69" cy="2714.57" r="64.0265" fill="#0000FF"/>
<circle cx="2225.11" cy="2945.07" r="64.0265" fill="#0000FF"/>
<circle cx="2199.5" cy="3188.37" r="64.0265" fill="#0000FF"/>
<circle cx="2212.3" cy="3418.86" r="64.0265" fill="#0000FF"/>
<circle cx="2442.8" cy="3354.84" r="64.0265" fill="#0000FF"/>
<circle cx="2417.19" cy="3124.34" r="64.0265" fill="#0000FF"/>
<circle cx="2442.8" cy="2855.43" r="64.0265" fill="#0000FF"/>
<circle cx="2378.77" cy="2624.93" r="64.0265" fill="#0000FF"/>
<circle cx="2532.43" cy="2471.27" r="64.0265" fill="#0000FF"/>
<circle cx="2634.88" cy="2279.19" r="64.0265" fill="#0000FF"/>
<circle cx="2878.18" cy="2291.99" r="64.0265" fill="#0000FF"/>
<circle cx="3108.67" cy="2279.19" r="64.0265" fill="#0000FF"/>
<circle cx="3351.97" cy="2291.99" r="64.0265" fill="#0000FF"/>
<circle cx="3275.14" cy="2535.3" r="64.0265" fill="#0000FF"/>
<circle cx="3172.7" cy="2752.99" r="64.0265" fill="#0000FF"/>
<circle cx="3044.64" cy="2945.07" r="64.0265" fill="#0000FF"/>
<circle cx="2865.37" cy="3124.34" r="64.0265" fill="#0000FF"/>
<circle cx="2673.29" cy="3252.39" r="64.0265" fill="#0000FF"/>
<circle cx="2622.07" cy="3021.9" r="64.0265" fill="#0000FF"/>
<circle cx="2801.34" cy="2881.04" r="64.0265" fill="#0000FF"/>
<circle cx="2942.2" cy="2688.96" r="64.0265" fill="#0000FF"/>
<circle cx="3044.64" cy="2496.88" r="64.0265" fill="#0000FF"/>
<circle cx="2775.73" cy="2522.49" r="64.0265" fill="#0000FF"/>
<circle cx="2634.88" cy="2714.57" r="64.0265" fill="#0000FF"/>
<circle cx="1520.81" cy="2868.23" r="64.0265" fill="#0000FF"/>
<circle cx="1341.54" cy="3021.9" r="64.0265" fill="#0000FF"/>
<circle cx="1546.42" cy="3124.34" r="64.0265" fill="#0000FF"/>
<circle cx="1508.01" cy="3354.84" r="64.0265" fill="#0000FF"/>
<circle cx="1290.32" cy="3252.39" r="64.0265" fill="#0000FF"/>
<circle cx="2660.49" cy="2061.5" r="64.0265" fill="#0000FF"/>
<circle cx="2890.98" cy="2061.5" r="64.0265" fill="#0000FF"/>
<circle cx="3121.48" cy="2061.5" r="64.0265" fill="#0000FF"/>
<circle cx="3351.97" cy="2061.5" r="64.0265" fill="#0000FF"/>
<circle cx="1738.51" cy="2061.5" r="64.0265" fill="#0000FF"/>
<circle cx="1508.01" cy="2061.5" r="64.0265" fill="#0000FF"/>
<circle cx="1572.04" cy="1831" r="64.0265" fill="#0000FF"/>
<circle cx="1315.93" cy="1843.81" r="64.0265" fill="#0000FF"/>
<circle cx="1085.43" cy="1831" r="64.0265" fill="#0000FF"/>
<circle cx="842.133" cy="1831" r="64.0265" fill="#0000FF"/>
<circle cx="611.637" cy="1818.2" r="64.0265" fill="#0000FF"/>
<circle cx="1277.51" cy="2061.5" r="64.0265" fill="#0000FF"/>
<circle cx="1047.02" cy="2061.5" r="64.0265" fill="#0000FF"/>
<circle cx="816.523" cy="2061.5" r="64.0265" fill="#0000FF"/>
<circle cx="586.027" cy="2061.5" r="64.0265" fill="#0000FF"/>
<circle cx="1969" cy="2061.5" r="64.0265" fill="#0000FF"/>
</svg>
