<svg width="183" height="277" viewBox="0 0 183 277" fill="none" xmlns="http://www.w3.org/2000/svg">
<path fill-rule="evenodd" clip-rule="evenodd" d="M155.36 210.686C147.15 218.916 132.96 216.606 127.26 208.156C124.46 203.996 122.64 199.276 120.19 194.656C118.79 192.006 114.4 182.216 113.39 180.956C112.18 179.476 65.6603 153.726 60.6103 151.506C53.3603 157.066 60.7203 156.116 43.5903 162.276C43.3803 162.356 43.0603 162.506 42.8803 162.566L41.4703 163.236C41.5103 173.936 41.5503 184.666 41.4703 195.366C41.4103 202.666 41.4203 203.596 44.5903 208.706C51.3803 219.676 60.5003 232.476 57.2703 242.896C51.6503 260.996 24.2103 258.916 21.6203 239.726C19.4403 223.626 38.4003 216.406 38.3103 193.576C38.2703 183.156 38.3103 172.756 38.3103 162.346C8.7503 159.066 7.5703 118.476 38.3103 114.156C38.3103 103.426 38.0403 92.7556 38.0803 82.0256C38.1203 74.3056 38.9703 74.5156 35.5503 68.7356C29.4203 58.3956 19.6903 45.1556 21.9103 35.2756C26.2003 16.1756 53.7803 17.0556 57.6003 35.0656C59.7203 45.0356 53.5603 52.2256 49.8303 58.7456C44.0703 68.7956 41.7603 68.6756 41.8003 82.9256C41.8303 93.3456 41.6803 103.926 41.4103 114.346C50.1303 115.246 57.3103 119.266 59.4703 125.176C63.9603 124.146 111.41 97.6056 113.31 95.4156C114.81 93.6956 119.3 84.3556 120.79 81.5556C123.14 77.1056 125.34 71.8956 127.78 68.0156C133.26 59.2856 148.51 58.4956 155.74 66.3156C164.06 75.2956 161.11 89.1356 151.88 94.7656C142.53 100.476 122.74 95.8856 115.01 98.9956L88.6403 113.616C80.0203 118.706 70.9403 122.906 61.8703 127.906C65.1603 139.416 63.9303 138.056 61.8803 149.246C66.8703 150.826 71.1303 153.956 76.1603 156.606C80.4203 158.846 85.0503 161.246 89.4603 163.836C93.6203 166.276 113.15 177.376 116.23 178.006C127.04 180.256 144.68 176.266 152.92 182.486C161.61 189.056 163.76 202.276 155.36 210.686ZM18.9003 270.986C57.2503 293.336 98.7203 248.406 70.3803 211.466C66.4503 206.346 62.7303 204.836 58.6203 198.236C56.1703 194.316 48.7403 178.386 55.5303 175.076C64.8603 170.546 90.1003 175.786 100.35 196.686C105.64 207.466 106.4 231.066 134.49 236.516C180.81 245.506 201.27 181.456 158.96 161.276C135.57 150.106 121.55 170.706 97.7203 156.476C91.8303 152.956 80.4103 142.586 81.8603 137.146C83.7003 130.216 94.0803 121.486 100.68 118.536C125.47 107.446 136.4 127.736 162.48 113.406C169.61 109.496 175.99 102.246 179.41 93.7356C185.78 77.9156 180.4 58.4056 166.97 47.9456C163.02 44.8656 154.71 41.1656 148.79 40.2456C141.28 39.0756 134.12 39.9256 127.49 42.6556C124.18 44.0256 121.43 45.4656 118.8 47.4256C115.88 49.6156 114.24 52.0356 111.87 53.8756C106.93 60.7156 105.71 63.3356 103.06 72.7556C96.8403 94.8556 76.7803 106.606 53.7203 100.986C51.1303 92.0256 56.0903 81.4356 60.3603 75.5156C64.9703 69.1256 90.7903 51.0556 74.8403 20.5156C71.4503 14.0156 67.2503 10.2856 61.2603 6.40562C38.9803 -8.03438 10.6103 3.42562 2.74031 25.9456C-2.31969 40.3856 1.60031 56.1256 9.92031 64.9356C19.3903 74.9656 26.8503 79.9356 26.9203 99.8756C22.9803 103.286 0.100303 110.446 0.000303456 138.246C-0.0396965 148.166 3.88031 157.126 8.46031 162.746C18.7203 175.326 26.2403 173.786 26.9503 177.516C25.9603 204.176 13.6803 202.916 4.83031 219.046C-1.39969 230.416 -0.879693 244.426 5.16031 256.216C8.29031 262.316 12.9803 267.536 18.9003 270.986Z" fill="#03AEEF"/>
</svg>
