<svg width="481" height="480" viewBox="0 0 481 480" fill="none" xmlns="http://www.w3.org/2000/svg">
<path d="M375.41 244.649C313.636 250.276 303.728 258.104 264.706 223.365H215.899C176.878 258.104 166.969 250.276 105.196 244.649C55.4101 240.123 17.1228 271.438 4.03418 283.793C6.35833 296.392 9.78337 308.624 13.9424 320.49C26.1748 305.199 46.8475 300.796 46.8475 300.796C32.9026 315.23 25.6855 331.621 22.3828 341.162C26.7864 350.704 31.8018 359.756 37.4287 368.563C61.1596 276.086 156.817 292.355 156.817 292.355C156.817 292.355 163.912 315.719 114.86 335.78C77.1839 351.193 59.814 379.328 53.8201 391.438C59.5693 398.41 65.6855 405.138 72.1687 411.499C84.0341 386.3 118.407 370.398 118.407 370.398C119.508 400.734 106.175 425.077 99.814 434.74C104.952 438.532 110.211 441.957 115.716 445.26C127.337 437.309 153.881 415.658 151.679 384.587C148.866 344.832 185.073 322.08 185.073 322.08L188.376 317.799C189.477 340.306 185.808 392.538 147.765 461.651C155.838 465.076 164.279 468.012 172.719 470.459C177.979 462.875 187.765 447.706 191.801 433.517C191.801 433.517 201.832 448.318 199.752 476.697C210.395 478.532 221.159 479.633 232.168 480C224.462 465.199 205.991 423.242 217.979 380.306C217.979 380.306 242.688 443.058 290.272 474.862C305.563 471.682 320.241 466.911 334.186 460.917C316.572 448.685 263.605 409.786 271.923 386.055C280.486 361.468 303.361 354.985 295.287 322.569C299.936 325.75 330.639 347.89 327.948 384.587C325.746 415.658 352.413 437.554 364.156 445.505C369.66 442.202 374.92 438.777 380.058 434.985C373.697 425.199 360.241 400.734 361.342 370.275C361.342 370.275 395.838 386.545 407.703 411.866C414.186 405.505 420.425 398.777 426.174 391.805C420.18 379.572 402.688 351.193 364.89 335.658C315.96 315.597 323.055 292.233 323.055 292.233C323.055 292.233 418.712 276.82 442.443 369.419C448.192 360.612 453.33 351.315 457.734 341.652C454.431 331.988 447.091 315.23 433.024 300.673C433.024 300.673 454.186 305.199 466.541 320.49C470.822 308.869 474.003 296.759 476.449 284.282C463.85 271.927 425.196 240.123 375.41 244.649ZM254.187 355.841C205.257 329.909 238.284 273.028 238.284 273.028C280.364 310.581 254.187 355.841 254.187 355.841Z" fill="url(#paint0_linear_598_19)"/>
<path d="M362.69 32.1715L253.944 175.902L269.723 0.611938C303.363 4.5263 334.8 15.6578 362.69 32.1715Z" fill="url(#paint1_linear_598_19)"/>
<path d="M480.979 229.724L266.667 191.437L408.318 67.0334C451.132 108.746 478.41 166.116 480.979 229.724Z" fill="url(#paint2_linear_598_19)"/>
<path d="M217.981 191.436L0 230.458C2.32415 165.626 30.4585 107.277 74.3728 65.3203L217.981 191.436Z" fill="url(#paint3_linear_598_19)"/>
<path d="M230.947 175.779L121.1 30.4585C149.357 14.1895 181.161 3.54739 215.167 0L230.947 175.779Z" fill="url(#paint4_linear_598_19)"/>
<path d="M242.324 209.786C247.931 209.786 252.476 205.241 252.476 199.633C252.476 194.026 247.931 189.48 242.324 189.48C236.716 189.48 232.17 194.026 232.17 199.633C232.17 205.241 236.716 209.786 242.324 209.786Z" fill="url(#paint5_linear_598_19)"/>
<defs>
<linearGradient id="paint0_linear_598_19" x1="240.242" y1="223.365" x2="240.242" y2="480" gradientUnits="userSpaceOnUse">
<stop stop-color="#F3B600"/>
<stop offset="1" stop-color="#F5BD00"/>
</linearGradient>
<linearGradient id="paint1_linear_598_19" x1="308.317" y1="0.611938" x2="308.317" y2="175.902" gradientUnits="userSpaceOnUse">
<stop stop-color="#F5BD00"/>
<stop offset="1" stop-color="#EFBB0A"/>
</linearGradient>
<linearGradient id="paint2_linear_598_19" x1="373.823" y1="67.0334" x2="373.823" y2="229.724" gradientUnits="userSpaceOnUse">
<stop stop-color="#F5BD00"/>
<stop offset="1" stop-color="#EFBB0A"/>
</linearGradient>
<linearGradient id="paint3_linear_598_19" x1="108.99" y1="65.3203" x2="108.99" y2="230.458" gradientUnits="userSpaceOnUse">
<stop stop-color="#F5BD00"/>
<stop offset="1" stop-color="#EFBB0A"/>
</linearGradient>
<linearGradient id="paint4_linear_598_19" x1="176.024" y1="0" x2="176.024" y2="175.779" gradientUnits="userSpaceOnUse">
<stop stop-color="#F5BD00"/>
<stop offset="1" stop-color="#EFBB0A"/>
</linearGradient>
<linearGradient id="paint5_linear_598_19" x1="242.323" y1="189.48" x2="242.323" y2="209.786" gradientUnits="userSpaceOnUse">
<stop stop-color="#F5BD00"/>
<stop offset="1" stop-color="#EFBB0A"/>
</linearGradient>
</defs>
</svg>
